<svg width="700" height="342" viewBox="0 0 700 342" fill="none" xmlns="http://www.w3.org/2000/svg">
<path opacity="0.5" d="M40.0577 280.314C28.5304 271.404 19.0219 260.152 12.1587 247.301C5.29548 234.449 1.23338 220.289 0.239995 205.753C-0.753388 191.218 1.3445 176.637 6.39543 162.971C11.4464 149.305 19.3357 136.865 29.5436 126.469C44.8065 111.073 64.5348 101.176 81.4639 87.8455C110.74 64.9346 132.418 31.8429 165.076 14.3473C204.4 -6.73069 252.054 -1.16542 295.243 9.3486C338.433 19.8626 381.822 34.9255 426.111 31.1265C452.487 28.8437 477.881 19.9126 504.008 15.5637C530.134 11.2148 558.794 11.9979 580.655 27.2274C612.48 49.5385 620.045 94.6272 646.155 123.703C658.802 137.8 675.598 147.83 686.795 163.16C704.807 187.804 704.341 224.811 685.712 248.988C661.851 279.897 618.795 284.796 584.071 301.792C564.742 311.256 547.413 324.903 527.418 332.834C485.396 349.496 438.124 338.649 395.035 325.186C351.946 311.723 307.557 295.527 262.952 302.125C221.295 308.323 183.755 334.034 141.749 337.933C122.254 339.749 99.9926 336.266 88.0789 319.437C75.2655 301.392 57.4033 293.644 40.0577 280.314Z" fill="#4D77FF"/>
<path d="M51.3548 184.822C62.6686 172.242 62.6686 172.242 75.4988 157.146L130.102 93.2449C142.182 79.3984 146.964 73.1166 153.429 63.2524H205.083C203.606 77.1206 202.933 91.0626 203.067 105.009V186.838H210.365C218.733 186.76 227.086 186.086 235.359 184.822V230.61C227.177 229.605 218.941 229.105 210.698 229.111H203.15V241.691C202.909 252.044 203.584 262.399 205.166 272.633H153.246C154.674 262.215 155.348 251.707 155.262 241.191V228.861H84.0633C67.7007 228.861 60.7358 229.111 51.3548 229.861V184.822ZM155.512 158.162C155.512 146.831 156.012 133.002 157.028 121.921C152.03 128.969 148.214 134.001 141.432 142.549L104.691 187.338H155.512V158.162Z" fill="#FFCC33"/>
<path d="M51.3548 184.822C62.6686 172.242 62.6686 172.242 75.4988 157.146L130.102 93.2449C142.182 79.3984 146.964 73.1166 153.429 63.2524H205.083C203.606 77.1206 202.933 91.0626 203.067 105.009V186.838H210.365C218.733 186.76 227.086 186.086 235.359 184.822V230.61C227.177 229.605 218.941 229.105 210.698 229.111H203.15V241.691C202.909 252.044 203.584 262.399 205.166 272.633H153.246C154.674 262.215 155.348 251.707 155.262 241.191V228.861H84.0633C67.7007 228.861 60.7358 229.111 51.3548 229.861V184.822ZM155.512 158.162C155.512 146.831 156.012 133.002 157.028 121.921C152.03 128.969 148.214 134.001 141.432 142.549L104.691 187.338H155.512V158.162Z" fill="url(#paint0_linear_47_537)"/>
<path d="M331.351 121.721C336.35 122.554 340.999 125.62 346.014 126.72C350.396 127.72 355.012 127.203 359.344 128.736C367.425 131.602 372.674 141.35 373.824 151.131C374.973 160.911 372.924 170.809 370.591 180.306C364.459 205.334 356.128 230.327 341.132 249.306C340.082 250.622 338.816 252.005 337.266 251.972C336.191 251.824 335.186 251.353 334.384 250.622C331.235 248.466 328.355 245.944 325.802 243.107C321.803 238.292 319.487 231.944 317.471 225.645C311.789 207.916 300.942 196.686 298.926 177.89C296.726 158.179 307.507 117.789 331.351 121.721Z" fill="#052B40"/>
<path d="M315.222 134.351C313.094 133.967 310.899 134.363 309.04 135.467C307.09 136.667 305.405 138.252 304.09 140.126C302.775 142 301.857 144.123 301.392 146.365C300.49 150.857 300.327 155.466 300.909 160.011C302.049 173.349 304.636 186.523 308.623 199.301C309.79 203 306.457 211.781 308.873 214.814C310.84 217.28 309.856 232.093 312.423 233.926C319.537 239.058 334.317 236.225 341.432 241.357C350.646 248.022 350.03 230.427 348.563 223.179C346.897 215.097 334.384 216.514 324.803 189.22C312.056 152.896 318.488 135.101 315.222 134.351Z" fill="url(#paint1_linear_47_537)"/>
<path d="M439.841 183.887C451.154 171.307 451.154 171.307 463.985 156.211L518.587 92.2937C527.109 82.8997 534.908 72.8735 541.915 62.3013H593.569C592.091 76.175 591.418 90.1226 591.552 104.074V185.854H598.851C607.191 185.763 615.515 185.089 623.761 183.837V229.626C615.58 228.607 607.344 228.101 599.101 228.11H591.552V240.69C591.31 251.043 591.985 261.398 593.569 271.632H541.732C543.154 261.258 543.828 250.794 543.748 240.323V227.993H472.549C456.186 227.993 449.138 228.243 439.841 229.009V183.887ZM543.998 157.227C543.998 145.897 544.498 132.067 545.497 121.003C540.499 128.035 536.7 133.067 529.901 141.631L493.244 186.42H544.064L543.998 157.227Z" fill="#FFCC33"/>
<path d="M439.841 183.887C451.154 171.307 451.154 171.307 463.985 156.211L518.587 92.2937C527.109 82.8997 534.908 72.8735 541.915 62.3013H593.569C592.091 76.175 591.418 90.1226 591.552 104.074V185.854H598.851C607.191 185.763 615.515 185.089 623.761 183.837V229.626C615.58 228.607 607.344 228.101 599.101 228.11H591.552V240.69C591.31 251.043 591.985 261.398 593.569 271.632H541.732C543.154 261.258 543.828 250.794 543.748 240.323V227.993H472.549C456.186 227.993 449.138 228.243 439.841 229.009V183.887ZM543.998 157.227C543.998 145.897 544.498 132.067 545.497 121.003C540.499 128.035 536.7 133.067 529.901 141.631L493.244 186.42H544.064L543.998 157.227Z" fill="url(#paint2_linear_47_537)"/>
<path d="M277.031 251.888C269.008 243.979 262.76 234.454 258.703 223.945C252.073 205.464 248.751 185.959 248.888 166.326C248.888 139.916 255.187 112.489 264.751 96.6434C280.097 70.9665 306.257 56.8867 337.966 56.8867C362.377 56.8867 383.755 65.218 399.101 80.2142C407.123 88.1163 413.372 97.6361 417.429 108.14C424.073 126.704 427.389 146.294 427.227 166.009C427.227 192.436 420.945 220.112 411.381 235.992C396.285 261.185 369.875 275.315 337.916 275.315C313.256 275.315 292.378 267.217 277.031 251.888ZM300.359 164.326C300.359 209.315 313.189 232.509 338.099 232.509C363.01 232.509 375.34 209.865 375.34 165.076C375.34 122.054 362.26 99.4094 337.849 99.4094C314.272 99.4094 300.426 123.303 300.426 164.326H300.359Z" fill="#FFCC33"/>
<path d="M277.031 251.888C269.008 243.979 262.76 234.454 258.703 223.945C252.073 205.464 248.751 185.959 248.888 166.326C248.888 139.916 255.187 112.489 264.751 96.6434C280.097 70.9665 306.257 56.8867 337.966 56.8867C362.377 56.8867 383.755 65.218 399.101 80.2142C407.123 88.1163 413.372 97.6361 417.429 108.14C424.073 126.704 427.389 146.294 427.227 166.009C427.227 192.436 420.945 220.112 411.381 235.992C396.285 261.185 369.875 275.315 337.916 275.315C313.256 275.315 292.378 267.217 277.031 251.888ZM300.359 164.326C300.359 209.315 313.189 232.509 338.099 232.509C363.01 232.509 375.34 209.865 375.34 165.076C375.34 122.054 362.26 99.4094 337.849 99.4094C314.272 99.4094 300.426 123.303 300.426 164.326H300.359Z" fill="url(#paint3_linear_47_537)"/>
<path d="M57.0034 183.887C68.3339 171.307 68.3339 171.307 81.164 156.211L135.767 92.2937C144.289 82.8997 152.087 72.8735 159.094 62.3013H210.748C209.271 76.175 208.597 90.1226 208.732 104.074V185.854H216.03C224.398 185.767 232.75 185.093 241.024 183.837V229.626C232.843 228.607 224.607 228.101 216.363 228.11H208.815V240.69C208.573 251.043 209.248 261.398 210.831 271.632H158.911C160.333 261.258 161.007 250.794 160.927 240.323V227.993H89.7118C73.3659 227.993 66.3844 228.243 57.0034 229.009V183.887ZM161.177 157.227C161.177 145.897 161.677 132.067 162.677 121.003C157.678 128.035 153.879 133.067 147.081 141.631L110.423 186.42H161.177V157.227Z" fill="#FFCC33"/>
<path d="M282.68 252.82C274.658 244.918 268.41 235.398 264.351 224.894C257.705 206.416 254.366 186.912 254.487 167.275C254.487 140.865 260.785 113.439 270.35 97.5759C285.696 71.9157 311.856 57.8359 343.565 57.8359C367.959 57.8359 389.353 66.1672 404.699 81.1634C412.727 89.0616 418.976 98.5825 423.028 109.09C429.709 127.662 433.048 147.271 432.892 167.008C432.892 193.419 426.61 221.112 417.046 236.991C401.95 262.151 375.523 276.231 343.581 276.231C318.921 276.214 298.043 268.166 282.68 252.82ZM306.141 165.342C306.141 210.331 318.971 233.525 343.881 233.525C368.542 233.525 381.122 210.881 381.122 166.109C381.122 123.07 368.025 100.425 343.631 100.425C319.921 100.359 306.141 124.253 306.141 165.342Z" fill="#FFCC33"/>
<path d="M384.621 77.7812C386.496 79.1475 387.925 81.0375 388.728 83.2136C389.531 85.3897 389.674 87.7548 389.137 90.0115C392.28 90.3117 395.333 91.232 398.119 92.7192C400.904 94.2064 403.367 96.231 405.366 98.676C408.947 103.402 411.114 109.047 411.614 114.955C412.095 120.829 411.966 126.737 411.231 132.584C411.148 134.605 410.732 136.598 409.998 138.483C409.136 140.117 407.923 141.541 406.444 142.65C404.966 143.759 403.261 144.527 401.45 144.898C397.831 145.62 394.124 145.794 390.453 145.414L381.705 144.948C381.417 144.954 381.131 144.891 380.872 144.764C380.697 144.615 380.555 144.432 380.455 144.225C380.355 144.019 380.298 143.794 380.289 143.565C379.689 139.982 378.772 138.416 378.123 134.834C376.499 127.27 373.322 120.126 368.792 113.856C367.989 112.918 367.418 111.805 367.125 110.606C367.025 108.949 367.395 107.297 368.192 105.841C369.376 102.976 370.356 100.03 371.124 97.0264C371.831 93.4318 372.749 89.8821 373.874 86.3958C375.019 82.8721 377.382 79.8714 380.539 77.9312" fill="url(#paint4_linear_47_537)"/>
<path d="M380.539 182.439C380.539 182.439 412.564 185.272 427.194 165.777C433.026 158.045 420.029 121.621 420.029 121.621L405.249 148.081L381.922 153.38L380.539 182.439Z" fill="url(#paint5_linear_47_537)"/>
<path d="M445.972 183.887C457.286 171.307 457.286 171.307 470.116 156.211L524.719 92.2937C536.799 78.4639 541.582 72.1655 548.047 62.3013H599.7C598.238 76.1925 597.581 90.1569 597.734 104.124V185.904H605.032C613.373 185.813 621.696 185.139 629.943 183.887V229.676C621.762 228.657 613.526 228.151 605.282 228.16H597.734V240.74C597.492 251.093 598.167 261.448 599.75 271.682H547.863C549.288 261.291 549.962 250.811 549.88 240.323V227.993H478.681C462.318 227.993 455.27 228.243 445.972 229.009V183.887ZM550.129 157.227C550.129 145.897 550.629 132.067 551.646 121.003C546.647 128.035 542.831 133.067 536.05 141.631L499.309 186.42H550.129V157.227Z" fill="#FFCC33"/>
<path d="M305.391 125.452C304.528 125.767 303.692 126.152 302.892 126.602C302.14 126.982 301.48 127.523 300.959 128.185C300.704 128.52 300.54 128.916 300.482 129.333C300.423 129.75 300.473 130.175 300.625 130.568C300.964 131.089 301.452 131.497 302.026 131.738C302.599 131.978 303.232 132.041 303.841 131.917C305.891 131.717 307.79 130.701 309.84 130.351C311.889 130.001 313.822 128.585 312.372 126.402C310.923 124.219 307.44 124.686 305.391 125.452Z" fill="#F7AF87"/>
<path d="M311.923 130.351C308.923 129.568 305.791 130.885 303.091 132.401C302.455 132.711 301.888 133.148 301.425 133.684C301.147 133.905 300.948 134.209 300.855 134.552C300.762 134.895 300.781 135.258 300.91 135.59C301.038 135.921 301.269 136.202 301.568 136.393C301.868 136.584 302.221 136.674 302.575 136.65C303.188 136.711 303.807 136.672 304.408 136.533L308.557 135.817C309.522 135.704 310.462 135.434 311.339 135.017C313.222 133.917 314.822 131.068 311.923 130.351Z" fill="#F7AF87"/>
<path d="M306.141 135.868C305.28 136.195 304.445 136.585 303.641 137.034C302.881 137.438 302.221 138.008 301.709 138.7C301.458 139.035 301.297 139.427 301.239 139.84C301.18 140.254 301.227 140.676 301.375 141.066C301.714 141.588 302.202 141.996 302.775 142.236C303.349 142.477 303.982 142.54 304.591 142.416C306.641 142.216 308.54 141.2 310.59 140.85C312.639 140.5 314.572 139.1 313.122 136.901C311.673 134.701 308.157 135.101 306.141 135.868Z" fill="#F7AF87"/>
<path d="M312.606 140.065C309.523 139.815 306.674 141.731 304.275 143.631C303.691 144.057 303.199 144.595 302.825 145.214C302.596 145.482 302.458 145.816 302.431 146.168C302.404 146.519 302.489 146.87 302.675 147.17C302.86 147.471 303.136 147.704 303.462 147.838C303.788 147.971 304.149 147.997 304.491 147.913C305.1 147.868 305.697 147.721 306.257 147.48L310.206 146.03C311.143 145.749 312.027 145.316 312.822 144.747C314.472 143.381 315.588 140.348 312.606 140.065Z" fill="#F7AF87"/>
<path d="M400.917 93.0269C396.059 90.7115 390.716 89.5972 385.337 89.7777C384.428 89.7338 383.52 89.8814 382.671 90.2109C382.256 90.3921 381.903 90.6903 381.654 91.069C381.406 91.4478 381.273 91.8907 381.272 92.3437C381.434 93.1342 381.886 93.8355 382.538 94.3099C384.506 96.0992 386.716 97.6025 389.103 98.7754C389.824 99.0599 390.481 99.4846 391.036 100.025C391.308 100.299 391.482 100.653 391.534 101.036C391.585 101.418 391.51 101.806 391.319 102.141C390.769 102.908 389.503 102.941 389.087 103.807C388.537 104.891 389.92 105.957 391.119 106.157C392.395 106.375 393.705 106.255 394.918 105.807C395.768 105.37 396.698 105.109 397.651 105.041C398.593 105.242 399.48 105.646 400.25 106.224C402.883 107.723 411.064 107.773 410.548 103.208C410.065 98.9754 404.283 94.7764 400.917 93.0269Z" fill="#F7AF87"/>
<path d="M360.66 129.768C360.66 129.768 397.501 144.947 401.717 144.164C405.932 143.381 399.117 107.023 399.117 107.023L411.681 101.275C411.681 101.275 440.007 157.427 416.813 165.592C402.47 170.392 386.929 170.227 372.691 165.126L360.66 129.768Z" fill="#052B40"/>
<path d="M380.255 108.69C380.126 111.952 379.356 115.156 377.989 118.121C376.652 120.33 374.819 122.198 372.636 123.577C370.453 124.957 367.979 125.81 365.409 126.069C363.537 126.19 361.677 126.452 359.844 126.852C358.995 127.026 358.201 127.408 357.536 127.963C356.87 128.519 356.352 129.23 356.028 130.035C354.545 133.634 353.012 137.283 348.23 136.067C347.781 135.967 347.345 135.816 346.931 135.617C345.427 134.911 344.075 133.921 342.948 132.701C341.545 131.281 340.325 129.691 339.316 127.969C338.794 127.172 338.442 126.275 338.283 125.336C338.185 124.182 338.321 123.02 338.683 121.92C340.349 115.255 340.615 107.707 342.982 101.209C345.404 94.6214 350.031 89.0755 356.078 85.5127C362.06 82.0302 370.375 81.9802 375.457 86.729C378.237 89.5126 379.998 93.1521 380.455 97.0597C380.855 100.931 380.788 104.835 380.255 108.69Z" fill="#F7AF87"/>
<path d="M339.732 100.36C340.049 97.2271 340.032 94.0446 340.649 90.962C341.115 87.8127 342.693 84.9342 345.098 82.8474C345.701 82.3679 346.376 81.9856 347.097 81.7143C347.747 81.4811 348.43 81.3478 349.097 81.1645C351.055 80.466 352.923 79.5375 354.662 78.3985C357.299 76.8182 360.183 75.6917 363.193 75.066C365.227 74.7549 367.284 74.61 369.341 74.6328C373.118 74.5661 376.912 74.5328 380.722 74.5328C381.616 74.4657 382.513 74.6142 383.338 74.966C384.244 75.5251 384.904 76.4061 385.188 77.4321C385.912 79.7313 385.912 82.1978 385.188 84.497C384.45 86.7715 383.473 88.9611 382.272 91.0287C381.686 92.3317 380.861 93.513 379.839 94.5111C378.956 92.9782 378.173 91.3953 377.373 89.7957C374.823 92.445 370.808 93.1281 367.142 92.8449C363.476 92.5616 359.877 91.6119 356.211 91.5619C355.34 91.4695 354.458 91.5499 353.618 91.7987C352.777 92.0474 351.994 92.4596 351.313 93.0115C350.492 93.9684 349.919 95.113 349.646 96.344C348.876 99.0867 348.247 101.868 347.764 104.675C347.33 103.859 345.581 101.726 344.664 101.759C344.4 101.785 344.144 101.865 343.911 101.994C343.679 102.123 343.476 102.298 343.315 102.509C341.798 104.175 342.548 110.291 343.948 112.057C344.228 112.324 344.44 112.656 344.564 113.023C344.593 113.269 344.572 113.517 344.503 113.755C344.435 113.992 344.319 114.214 344.165 114.406C343.78 114.861 343.291 115.216 342.74 115.442C342.189 115.668 341.592 115.759 340.999 115.706C339.532 115.706 339.249 112.907 339.099 111.873C338.483 108.024 339.366 104.142 339.732 100.36Z" fill="#606060"/>
<path d="M345.581 107.392C345.375 106.961 345.283 106.485 345.314 106.009C345.349 105.532 345.298 105.052 345.164 104.593C345.012 104.171 344.709 103.821 344.314 103.61C344.2 103.577 344.079 103.577 343.965 103.61C343.868 103.651 343.782 103.714 343.715 103.796C343.649 103.877 343.603 103.973 343.581 104.076C342.998 105.902 343.063 107.874 343.765 109.658C343.857 109.978 344.02 110.273 344.243 110.521C344.465 110.769 344.74 110.964 345.048 111.091C345.319 111.145 345.6 111.131 345.865 111.05C346.13 110.968 346.37 110.822 346.564 110.625C346.826 110.347 347.005 110.002 347.082 109.628C347.158 109.254 347.129 108.866 346.997 108.508C346.714 107.842 345.931 107.992 345.581 107.392Z" fill="url(#paint6_linear_47_537)"/>
<path d="M359.844 126.819C358.994 126.993 358.201 127.375 357.536 127.931C356.87 128.486 356.352 129.198 356.028 130.002C354.545 133.601 353.012 137.25 348.23 136.034C347.781 135.934 347.345 135.783 346.93 135.584C346.526 135.238 346.197 134.813 345.964 134.334C345.75 133.772 345.652 133.172 345.675 132.571C345.698 131.97 345.841 131.379 346.097 130.835C346.675 129.435 347.647 128.233 348.896 127.375C350.144 126.517 351.615 126.04 353.129 126.003C354.402 126.062 355.667 126.229 356.911 126.503C357.678 126.603 358.578 126.503 359.277 126.586C359.481 126.623 359.674 126.702 359.844 126.819Z" fill="url(#paint7_linear_47_537)"/>
<defs>
<linearGradient id="paint0_linear_47_537" x1="-108.755" y1="13.9815" x2="437.658" y2="319.738" gradientUnits="userSpaceOnUse">
<stop stop-opacity="0"/>
<stop offset="0.99"/>
</linearGradient>
<linearGradient id="paint1_linear_47_537" x1="361.394" y1="168.259" x2="191.703" y2="272.683" gradientUnits="userSpaceOnUse">
<stop stop-opacity="0"/>
<stop offset="0.99"/>
</linearGradient>
<linearGradient id="paint2_linear_47_537" x1="708.306" y1="308.989" x2="228.427" y2="-100.108" gradientUnits="userSpaceOnUse">
<stop stop-opacity="0"/>
<stop offset="0.99"/>
</linearGradient>
<linearGradient id="paint3_linear_47_537" x1="492.577" y1="172.358" x2="-30.7079" y2="151.13" gradientUnits="userSpaceOnUse">
<stop stop-opacity="0"/>
<stop offset="0.99"/>
</linearGradient>
<linearGradient id="paint4_linear_47_537" x1="431.509" y1="69.3334" x2="281.214" y2="230.226" gradientUnits="userSpaceOnUse">
<stop stop-opacity="0"/>
<stop offset="0.99"/>
</linearGradient>
<linearGradient id="paint5_linear_47_537" x1="410.165" y1="194.22" x2="388.137" y2="90.3123" gradientUnits="userSpaceOnUse">
<stop stop-opacity="0"/>
<stop offset="0.99"/>
</linearGradient>
<linearGradient id="paint6_linear_47_537" x1="343.848" y1="107.625" x2="348.164" y2="106.126" gradientUnits="userSpaceOnUse">
<stop stop-opacity="0"/>
<stop offset="0.99"/>
</linearGradient>
<linearGradient id="paint7_linear_47_537" x1="344.998" y1="124.32" x2="370.475" y2="145.198" gradientUnits="userSpaceOnUse">
<stop stop-opacity="0"/>
<stop offset="0.99"/>
</linearGradient>
</defs>
</svg>
