<svg width="341" height="250" viewBox="0 0 341 250" fill="none" xmlns="http://www.w3.org/2000/svg">
<path fill-rule="evenodd" clip-rule="evenodd" d="M236.299 2.79968C272.783 -5.3669 306.584 4.32275 324.752 31.9998C342.919 59.6763 338.166 103.594 334.231 122.98C330.295 142.365 320.312 160.121 307.922 175.536C284.909 204.167 253.809 226.077 219.042 237.904C184.274 249.731 146.527 252.156 110.295 246.173C89.9707 242.816 26.3941 226.373 12.6701 176.753C-1.0538 127.133 -9.73932 84.7233 19.9801 67.4963C49.6992 50.2687 70.285 63.2262 84.9972 69.5977C153.733 99.3655 199.816 10.9668 236.299 2.79968Z" fill="#FFCC33"/>
<path fill-rule="evenodd" clip-rule="evenodd" d="M287.674 49.2758C293.527 48.8241 299.835 49.1164 304.604 52.5385C309.374 55.9606 311.54 63.4747 307.624 67.8478C312.052 66.1167 317.255 69.0525 319.473 73.2571C321.691 77.4622 321.575 82.5001 320.908 87.2067C319.255 98.8633 314.503 110.066 307.271 119.356C306.938 120.336 306.606 121.315 306.274 122.294C314.823 124.498 348.205 137.462 339.185 169.422C330.165 201.382 290.774 213.546 286.742 217.371C279.715 224.038 268.988 224.493 259.306 224.186C235.5 223.431 211.766 220.405 188.532 215.165C186.556 214.719 184.054 214.448 182.915 216.122C174.674 228.24 157.438 229.323 142.821 228.268C124.045 226.913 105.378 224.065 87.0517 219.761C76.657 217.32 65.6184 213.92 59.1428 205.43C51.5936 195.532 52.4654 181.81 53.6905 169.422C48.7284 172.18 40.4991 173.675 29.0014 173.904C22.2324 172.524 18.0096 170.07 16.3339 166.543C8.67078 150.414 6.04294 129.63 15.5856 113.733C16.7319 111.823 18.0545 109.941 19.9212 108.725C21.9 107.437 24.3123 107.013 26.6648 106.805C35.9423 105.983 45.4612 108.149 53.4706 112.903C53.3988 86.8726 53.3276 60.8419 53.2558 34.8111C53.2518 33.3209 53.2727 31.739 54.0671 30.4777C55.217 28.6533 57.5717 28.0879 59.6912 27.6927C78.971 24.0931 98.4696 21.666 118.043 20.4285C124.439 20.0237 133.192 21.804 133.221 28.2123C133.332 52.7539 133.444 77.2954 133.556 101.837C133.582 107.678 133.958 107.19 136.694 105.497C134.974 105.675 135.358 102.757 136.661 101.621C141.528 97.378 148.621 97.222 155.077 97.2882C169.518 97.4357 183.959 97.5838 198.4 97.7314C212.393 97.875 229.173 99.6491 235.508 112.127C235.324 108.418 238.684 104.919 242.397 104.953C246.446 104.99 249.832 101.478 251.014 97.6053C252.196 93.7326 251.674 89.5716 251.143 85.5576C244.614 79.2357 242.905 68.49 247.15 60.4552C251.395 52.4203 261.235 47.7765 270.136 49.6065C275.886 50.7893 281.822 49.7281 287.674 49.2758ZM120.104 169.659C119.912 174.826 119.708 180.062 118.188 185.004L120.104 169.659ZM114.121 106.246C115.465 106.64 117.128 107.831 116.423 109.041C122.262 109.625 120.518 109.355 120.78 102.474C121.047 95.492 121.069 87.7721 116.498 82.4877C112.454 77.8116 105.858 76.349 99.6976 75.8233C92.5074 75.2093 85.2397 75.5044 78.123 76.6984C74.6506 77.2813 70.8893 78.2859 68.8743 81.1732C67.7464 82.789 67.3315 84.7847 67.0002 86.7273C65.697 94.3687 65.29 102.162 65.7903 109.897C80.7598 102.933 98.2751 101.609 114.121 106.246ZM244.035 157.544C244.401 157.175 244.956 157.085 245.471 157.014C247.528 156.731 249.586 156.448 251.643 156.165C246.922 154.032 244.06 148.967 243.205 143.858C242.35 138.749 243.185 133.525 244.028 128.413C241.008 131.774 241.226 136.845 241.621 141.346C242.488 151.197 243.67 157.914 244.035 157.544ZM205.194 206.067C205.599 204.752 206.976 204.045 207.984 203.108C209.8 201.421 210.474 198.87 211.066 196.464C213.113 188.148 215.171 179.731 215.146 171.167C215.14 169.353 215.048 167.489 215.649 165.776C216.249 164.064 217.755 162.516 219.569 162.507C221.482 162.498 221.939 159.844 221.768 157.939C221.178 151.368 220.588 144.798 219.999 138.228C219.81 136.13 219.618 134.011 218.982 132.003C216.627 124.578 207.554 120.088 200.223 122.721C199.325 123.043 199.085 124.177 198.983 125.125C197.855 135.635 196.726 146.143 195.598 156.653C195.398 158.52 197.808 159.711 199.629 159.249C201.449 158.787 202.838 157.365 204.412 156.34C205.986 155.316 208.205 154.726 209.649 155.925C211.283 157.28 213.701 155.775 215.119 154.196C216.538 152.617 218.386 150.714 220.404 151.373C218.037 153.637 215.67 155.901 213.303 158.165C212.518 158.916 211.826 160.416 212.818 160.859C215.538 159.895 217.996 158.204 219.87 156.01C220.737 155.982 220.778 157.344 220.294 158.063C218.472 160.775 214.183 161.379 213.079 164.454C210.501 171.631 202.463 176.399 194.929 175.218C193.383 174.976 192.613 177.009 192.427 178.562C191.685 184.755 190.943 190.947 190.202 197.14C190.031 198.565 189.872 200.072 190.459 201.382C191.437 203.566 194.055 204.393 196.376 204.981C199.443 205.758 202.547 206.539 205.682 206.879C207.003 207.022 206.997 206.538 205.194 206.067ZM82.9783 194.713C87.3615 196.181 92.0008 196.678 96.5977 197.167C98.5471 197.374 100.623 197.56 102.372 196.674C104.43 195.631 105.527 193.371 106.412 191.24C111.35 179.357 114.168 166.597 114.697 153.74C114.772 151.912 112.433 151.106 110.608 150.983C96.0437 150.006 82.1144 156.408 68.9235 162.661C68.2914 162.961 67.6147 163.302 67.3026 163.928C67.0697 164.395 67.0821 164.942 67.0991 165.463C67.3354 172.566 67.6334 179.924 70.8101 186.281C71.6683 187.998 72.7595 189.651 74.3046 190.789C75.2402 191.479 76.3116 191.958 77.3739 192.431C79.2175 193.252 81.0646 194.072 82.9783 194.713ZM177.199 168.425C179.14 157.984 180.509 147.437 181.296 136.846C181.565 133.223 181.762 129.54 180.978 125.992C180.195 122.445 178.306 118.996 175.217 117.084C173.313 115.906 171.085 115.377 168.881 114.984C164.859 114.267 160.768 113.941 156.684 114.014C153.079 114.078 149.296 114.517 146.354 116.6C145.381 117.289 144.497 118.19 144.141 119.328C143.786 120.466 144.085 121.864 145.073 122.532C147.567 124.222 148.584 127.383 149.052 130.359C149.519 133.336 149.632 136.453 150.988 139.143C151.687 140.531 152.69 141.741 153.742 142.885C159.445 149.085 166.884 153.672 174.985 155.984C176.409 156.391 178.221 157.27 177.92 158.72C182.401 161.547 177.124 168.825 177.199 168.425ZM164.852 199.219C166.501 198.216 167.62 196.548 168.604 194.888C172.782 187.844 175.522 179.951 176.606 171.833C161.579 171.765 146.641 166.095 135.354 156.175C134.967 157.725 135.041 159.349 135.093 160.945C135.423 170.916 134.832 180.916 133.329 190.778C132.971 193.129 134.375 195.479 136.306 196.867C138.236 198.256 140.615 198.852 142.95 199.302C148.214 200.316 153.593 200.732 158.95 200.539C160.988 200.465 163.109 200.278 164.852 199.219ZM259.678 113.219C258.803 111.108 258.145 108.729 256.328 107.342C254.51 105.957 251.089 106.635 250.982 108.918C252.78 108.586 254.155 110.806 253.849 112.609C253.542 114.412 252.232 115.846 251.191 117.349C249.752 119.426 248.767 121.778 247.794 124.109C245.478 129.658 244.577 135.789 245.198 141.769C245.564 145.29 246.528 148.906 248.909 151.525C251.289 154.145 255.37 155.454 258.506 153.815C261.201 152.407 262.545 149.302 263.163 146.326C263.781 143.349 263.891 140.233 265.058 137.426C267.211 132.248 272.522 129.119 277.775 127.155C269.878 126.083 262.733 120.58 259.678 113.219ZM237.841 118.821C238.192 120.178 238.678 121.501 239.29 122.763C239.657 120.985 240.247 119.253 241.041 117.621C240.238 117.529 239.429 117.485 238.621 117.49C238.425 117.491 238.217 117.499 238.052 117.604C237.678 117.84 237.73 118.393 237.841 118.821ZM142.653 117.424C142.156 117.824 141.865 118.685 142.39 119.048C143.193 118.244 143.997 117.439 144.801 116.634C144.635 116.428 144.394 116.284 144.134 116.236C143.815 116.789 143.151 117.024 142.653 117.424Z" fill="white"/>
<path d="M281.86 111.658C283.578 111.658 284.969 110.266 284.969 108.549C284.969 106.831 283.578 105.439 281.86 105.439C280.142 105.439 278.75 106.831 278.75 108.549C278.75 110.266 280.142 111.658 281.86 111.658Z" fill="#FFB61D"/>
<path d="M264.051 108.549C264.988 108.549 265.747 107.79 265.747 106.853C265.747 105.917 264.988 105.157 264.051 105.157C263.114 105.157 262.355 105.917 262.355 106.853C262.355 107.79 263.114 108.549 264.051 108.549Z" fill="#FFB61D"/>
<path fill-rule="evenodd" clip-rule="evenodd" d="M103.448 63.9297C108.537 63.9619 113.624 63.9941 118.712 64.0264C118.951 64.0281 119.206 64.0349 119.399 64.1756C119.791 64.464 119.634 65.139 119.23 65.4104C118.827 65.6818 118.302 65.6704 117.816 65.6535C113.338 65.498 108.847 65.7309 104.409 66.3477C103.734 66.4416 103.023 66.54 102.391 66.2838C101.76 66.0272 101.277 65.2713 101.568 64.655C101.872 64.0111 102.737 63.9252 103.448 63.9297ZM86.4333 63.4299C86.7556 63.751 86.6012 64.3413 86.2428 64.6223C85.8849 64.9032 85.4049 64.9592 84.9521 65.005C80.4411 65.4618 75.9301 65.9186 71.4197 66.3754C70.886 66.4297 70.3342 66.4817 69.8243 66.3172C69.3137 66.1532 68.8519 65.7117 68.84 65.1758C68.8275 64.6228 69.2968 64.153 69.8214 63.9766C70.3455 63.8002 70.9148 63.8494 71.4666 63.893C76.0884 64.2565 80.7554 64.0467 85.3258 63.2705C85.7091 63.2055 86.158 63.1557 86.4333 63.4299ZM85.8013 54.7709C86.1382 55.0429 86.0184 55.6257 85.6803 55.8965C85.3422 56.1674 84.882 56.212 84.4501 56.2459L69.9633 57.3891C69.4212 57.4321 68.8592 57.4722 68.3481 57.2873C67.8365 57.1019 67.3876 56.6253 67.417 56.082C67.4469 55.5319 67.9552 55.1051 68.4906 54.975C69.026 54.845 69.5868 54.9422 70.1318 55.0231C75.0487 55.7496 80.0482 55.087 84.9979 54.6369C85.2755 54.6115 85.5842 54.5957 85.8013 54.7709ZM106.033 51.9006C109.056 52.2867 112.12 52.3455 115.155 52.0759C116.362 51.9684 117.821 51.9181 118.506 52.9166C117.692 53.5746 116.574 53.6679 115.53 53.7341C112.068 53.9517 108.607 54.1699 105.146 54.3882C104.356 54.4379 103.372 54.378 103.047 53.6572C102.755 53.0098 103.269 52.2313 103.928 51.9696C104.588 51.7073 105.329 51.8107 106.033 51.9006ZM79.9198 48.2003C79.9232 48.7227 79.268 48.9483 78.7507 49.0246L71.1438 50.1395C70.6005 50.2192 70.0397 50.2978 69.5094 50.1559C68.9791 50.0146 68.4832 49.5928 68.4341 49.0461C68.373 48.3773 69.0011 47.8125 69.6569 47.6666C70.3127 47.5208 70.9923 47.6734 71.6589 47.7594C73.9565 48.0551 76.2744 47.5502 78.5901 47.4705C79.1566 47.4512 79.9153 47.6333 79.9198 48.2003ZM116.626 46.3793C117.215 46.4449 117.819 46.796 117.976 47.367C116.93 48.1579 115.549 48.3015 114.243 48.4174C112.009 48.6153 109.774 48.8138 107.54 49.0116C106.752 49.0812 105.965 49.1513 105.178 49.2208C104.603 49.2717 104.004 49.3197 103.463 49.1157C102.923 48.9116 102.461 48.375 102.541 47.8029C102.668 46.9012 103.852 46.6671 104.762 46.6863C108.14 46.7592 111.56 47.2692 114.87 46.5891C115.45 46.4698 116.037 46.3132 116.626 46.3793ZM119.593 37.8492C103.036 40.0818 86.0596 38.9262 69.7299 42.458C68.7614 42.6672 67.4096 42.6779 67.1592 41.7191C67.1818 40.5895 68.6427 40.1819 69.7694 40.1016C85.6554 38.9686 101.541 37.8357 117.426 36.7027C118.358 36.636 119.666 36.9181 119.593 37.8492Z" fill="#E7EAEE"/>
<path fill-rule="evenodd" clip-rule="evenodd" d="M61.3498 209.481C61.5228 211.484 58.7616 212.163 56.7506 212.171C46.3012 212.212 35.8624 214.15 26.0942 217.863C24.6033 218.429 23.0079 219.143 22.2825 220.563C21.322 222.443 22.3702 224.85 24.0702 226.103C25.7697 227.356 27.9389 227.738 30.0234 228.078C84.1999 236.899 139.182 240.766 194.061 239.615L194.943 239.596C201.272 239.449 207.731 239.109 213.53 236.603C208.729 233.239 203.929 229.874 199.129 226.51C207.439 224.851 216.012 226.033 224.445 226.865C243.744 228.77 263.228 228.809 282.535 226.981C281.176 229.153 278.187 229.454 275.626 229.51C251.34 230.033 227.024 229.169 202.835 226.927C205.991 229.004 209.147 231.08 212.303 233.157C213.447 233.91 214.712 234.865 214.778 236.232C214.877 238.287 212.352 239.313 210.322 239.648C203.587 240.761 196.735 240.938 189.909 241.038C136.596 241.818 83.2173 238.003 30.5577 229.65C27.9881 229.243 25.3259 228.788 23.1832 227.312C21.041 225.836 19.5801 223.03 20.4802 220.588C21.3757 218.161 24.1007 217.02 26.5606 216.217C37.8174 212.541 49.5339 210.272 61.3498 209.481ZM133.221 28.2133C133.333 52.7548 133.445 77.2964 133.556 101.838C133.583 107.679 134.733 115.071 140.382 116.558C148.188 112.955 156.986 111.531 165.529 112.489C170.42 113.038 175.499 114.517 178.81 118.158C183.352 123.153 183.359 130.675 182.871 137.408C181.883 151.057 179.936 164.636 177.05 178.012C179.343 177.867 181.681 178.788 183.261 180.456C180.828 181.569 177.929 181.615 175.461 180.581C177.156 189.768 169.672 198.832 160.708 201.464C151.744 204.096 142.017 201.614 133.588 197.586C132.798 200.664 136.916 202.473 140.06 202.938C148.042 204.118 156.023 205.297 164.004 206.477C154.148 206.773 144.258 205.966 134.58 204.077C132.797 206.6 136.833 209.148 139.884 209.642C147.974 210.951 156.063 212.261 164.154 213.57C155.016 213.509 145.882 212.9 136.818 211.747C142.583 216.947 150.452 219.743 158.206 219.346C153.831 220.785 148.972 220.698 144.652 219.104C150.057 226.341 161.113 227.682 169.188 223.635C177.262 219.587 182.534 211.305 185.113 202.648C187.692 193.992 187.942 184.844 188.4 175.823C189.243 159.172 190.855 142.543 193.772 126.128C195.736 115.074 200.561 101.893 211.679 100.331C191.871 99.4183 172.045 98.9258 152.216 98.8546C146.191 98.8331 138.706 99.8185 136.694 105.498C134.975 105.676 135.358 102.758 136.662 101.622C141.529 97.379 148.621 97.223 155.077 97.2891L198.401 97.7324C212.393 97.876 229.173 99.65 235.508 112.127C235.324 108.419 238.685 104.92 242.397 104.954C246.446 104.991 249.832 101.479 251.014 97.6063C252.196 93.7336 251.674 89.5726 251.143 85.5585C244.614 79.2367 242.906 68.491 247.15 60.4561C248.351 58.1834 250.125 52.765 260.033 49.2768C266.639 46.9515 273.168 47.2076 279.621 50.044C291.74 47.7006 300.068 48.5322 304.605 52.5394C311.41 58.5498 311.541 63.4757 307.624 67.8487C312.052 66.1176 317.256 69.0535 319.474 73.2581C321.692 77.4632 321.576 82.5011 320.908 87.2077C319.255 98.8642 314.504 110.067 307.271 119.357L306.274 122.295C323.77 126.806 337.924 142.27 340.871 160.096C335.054 146.985 327.179 133.1 313.613 128.445C310.551 131.656 307.403 135.007 305.966 139.204C304.528 143.401 305.305 148.705 308.95 151.233C306.66 151.764 304.371 152.294 302.081 152.825C302.843 154.177 303.605 155.529 304.368 156.881C295.716 163.458 294.72 175.899 294.773 186.767C294.825 197.635 294.627 209.892 286.742 217.372C279.715 224.039 268.988 224.494 259.306 224.187C235.5 223.432 211.766 220.406 188.532 215.165C186.557 214.72 184.054 214.449 182.916 216.123C174.674 228.24 157.438 229.324 142.822 228.269C124.046 226.914 105.378 224.066 87.0521 219.762C76.6574 217.321 65.6188 213.921 59.1432 205.431C51.594 195.533 52.4658 181.811 53.6909 169.423C46.248 173.561 37.4245 175.163 29.0018 173.905C37.8802 168.101 42.1854 156.996 42.2662 146.39C42.3471 135.783 38.8068 125.502 34.868 115.652C26.1892 120.686 21.6228 131.297 22.3018 141.307C22.9808 151.317 28.2917 160.609 35.4175 167.672C26.6335 162.128 20.8205 152.141 20.3394 141.764C19.8583 131.388 24.7221 120.906 32.9553 114.573C31.6398 110.074 24.8521 109.524 21.2943 112.576C17.7369 115.629 16.6204 120.584 15.7054 125.182C14.0144 133.677 12.3165 142.37 13.5451 150.944C14.7737 159.519 19.51 168.102 27.4465 171.571C23.7378 174.244 18.7975 170.396 16.3342 166.544C6.34502 150.923 6.04334 129.631 15.586 113.734C16.7323 111.824 18.0549 109.942 19.9216 108.726C21.9004 107.438 24.3127 107.014 26.6652 106.806C35.9427 105.984 45.4616 108.15 53.471 112.904C53.3992 86.8736 53.328 60.8428 53.2562 34.8121C53.2522 33.3218 53.2731 31.74 54.0675 30.4787C55.2174 28.6543 57.5721 28.0889 59.6916 27.6937C78.9714 24.0941 98.47 21.667 118.044 20.4294C124.44 20.0246 133.193 21.805 133.221 28.2133ZM120.149 21.9977C99.3955 22.9747 78.7176 25.5397 58.3551 29.664C57.4884 29.8398 56.5709 30.0445 55.9411 30.6652C55.0828 31.5104 55.0167 32.8498 55.0054 34.054C54.7623 59.9733 54.8652 85.896 55.3135 111.813C57.8056 111.192 60.2977 110.57 62.7892 109.949C61.8157 104.631 60.8371 99.2407 61.2537 93.8506C61.6704 88.46 63.6486 82.9777 67.7169 79.4176C72.1204 75.5642 78.2659 74.4753 84.1032 74.0654C89.716 73.6714 95.3634 73.7624 100.961 74.3379C106.675 74.9253 112.694 76.194 116.817 80.1944C122.771 85.9724 122.868 95.3336 122.559 103.626C121.741 125.637 120.923 147.648 120.105 169.66C119.912 174.827 119.709 180.063 118.189 185.005C116.668 189.947 113.649 194.644 109.083 197.068C104.602 199.449 99.24 199.381 94.1988 198.808C89.3859 198.261 84.6193 197.307 79.9665 195.959C77.1402 195.14 74.3123 194.155 71.9101 192.455C63.9623 186.83 63.0227 175.607 62.8299 165.872C59.7776 165.321 56.7942 167.643 55.5346 170.477C54.2744 173.311 54.3298 176.531 54.4084 179.631C54.6034 187.364 54.9048 195.483 58.8526 202.136C64.9438 212.4 77.7373 216.192 89.4187 218.643C110.152 222.993 131.203 225.83 152.348 227.124C142.911 222.318 134.544 214.092 132.554 203.69C132.013 200.865 131.956 197.972 131.899 195.095C130.797 138.855 129.695 82.6136 128.594 26.373C128.524 22.8164 123.702 21.8304 120.149 21.9977ZM200.597 114.335C200.073 115.615 199.691 117.035 200.04 118.374C200.39 119.713 201.691 120.881 203.056 120.654C209.169 119.636 215.758 122.647 218.99 127.935C221.656 132.298 222.026 137.636 222.327 142.741L225.061 189.239C225.353 194.208 225.497 199.676 222.409 203.58C218.402 208.644 210.879 208.813 204.451 208.184C199.148 207.665 193.569 206.783 189.451 203.401C189.597 205.37 189.023 207.384 187.862 208.98C186.428 210.951 188.743 213.543 190.994 214.475C193.745 215.613 196.735 216.009 199.686 216.392C213.205 218.147 226.731 219.839 240.266 221.468C250.683 222.722 261.267 223.937 271.624 222.253C265.072 220.415 258.802 217.573 253.101 213.858C250.256 212.005 247.506 209.887 245.566 207.101C242.399 202.553 241.732 196.774 241.205 191.257C239.638 174.851 238.472 158.407 237.707 141.945C237.144 129.802 233.25 117.831 226.563 107.68C225.368 105.865 223.905 103.981 221.791 103.476C213.386 101.467 203.877 106.339 200.597 114.335ZM162.057 219.411C162.77 219.532 163.501 219.692 164.089 220.113C164.677 220.535 165.087 221.284 164.906 221.984C164.725 222.684 163.801 223.145 163.217 222.718C162.572 222.247 161.716 222.231 160.948 222.014C160.18 221.797 159.375 221.159 159.513 220.373C159.688 219.376 161.06 219.242 162.057 219.411ZM132.456 219.707C133.34 219.891 134.376 220.522 134.195 221.406C134.035 222.187 133.069 222.447 132.279 222.553C131.394 222.671 130.449 222.781 129.646 222.391C128.842 222.002 128.321 220.904 128.848 220.184C129.204 219.697 129.869 219.568 130.471 219.544C131.136 219.517 131.804 219.572 132.456 219.707ZM185.378 209.869C184.538 210.475 183.962 211.367 183.369 212.216C180.668 216.085 177.246 219.449 173.329 222.081C173.427 222.496 174.05 222.392 174.419 222.178C178.953 219.55 182.189 215.21 185.295 210.989C185.549 210.644 185.758 210.066 185.378 209.869ZM225.923 105.338C228.343 108.194 230.781 111.078 232.551 114.377C234.469 117.953 235.547 121.916 236.415 125.88C241.27 148.058 239.974 171.115 243.12 193.598C243.688 197.655 244.438 201.799 246.549 205.31C249.022 209.423 253.126 212.274 257.308 214.63C260.689 216.535 264.219 218.208 267.932 219.337C273.838 221.131 280.933 221.257 285.46 217.061C288.002 214.705 289.339 211.344 290.383 208.039C294.86 193.873 295.352 178.471 291.789 164.049C291.879 172.674 292.999 181.28 292.743 189.902C292.486 198.525 290.716 207.404 285.648 214.384C284.644 215.767 283.48 217.094 281.963 217.88C279.964 218.915 277.59 218.895 275.356 218.622C271.454 218.145 267.639 216.967 264.149 215.159C261.497 213.785 259.044 212.06 256.668 210.253C253.905 208.152 251.192 205.889 249.256 203.007C247.338 200.152 246.268 196.817 245.42 193.483C239.227 169.14 243.655 142.882 236.306 118.863C234.574 113.202 231.566 107.129 225.923 105.338ZM78.1692 212.429C92.4665 214.635 106.764 216.842 121.062 219.049C120.7 219.995 119.393 220.028 118.389 219.894C106.161 218.26 93.9336 216.627 81.7061 214.994C80.3238 214.809 78.9415 214.624 77.5592 214.44C76.9028 214.352 76.0881 214.114 76.005 213.458C75.8885 212.532 77.2471 212.286 78.1692 212.429ZM244.028 128.414C241.008 131.775 241.227 136.846 241.622 141.347C242.488 151.198 243.353 161.049 244.219 170.901C244.26 171.362 244.309 171.847 244.579 172.223C245.021 172.837 245.877 172.944 246.631 172.997C256.911 173.721 267.191 174.446 277.47 175.17C276.701 176.385 274.969 176.403 273.535 176.293C263.858 175.545 254.141 175.303 244.438 175.567C244.272 180.543 245.005 185.548 246.592 190.267C247.28 192.311 249.93 192.747 252.087 192.834C260.308 193.167 268.531 193.5 276.753 193.833C277.131 194.685 275.803 195.217 274.871 195.206C266.419 195.109 257.968 195.012 249.516 194.915C248.359 194.901 247.94 196.541 248.376 197.614C249.516 200.416 253.146 201.02 256.166 201.209L275.061 202.392C275.492 202.419 275.582 203.097 275.267 203.393C274.952 203.689 274.472 203.697 274.04 203.688L251.917 203.218C257.637 210.026 265.66 214.864 274.351 216.746C276.224 217.151 278.209 217.417 280.029 216.816C282.205 216.098 283.811 214.249 285.068 212.332C291.733 202.162 291.29 189.077 290.609 176.937L289.836 163.176C290.107 162.805 290.661 162.677 291.066 162.891C291.222 162.217 290.345 161.817 289.664 161.692C274.626 158.929 259.196 156.163 244.146 158.86C243.665 158.663 243.67 157.915 244.036 157.545C244.402 157.176 244.956 157.086 245.471 157.015C247.529 156.732 249.586 156.449 251.643 156.166C246.922 154.033 244.06 148.968 243.205 143.859C242.35 138.75 243.186 133.526 244.028 128.414ZM170.121 212.067C171.46 212.317 173.007 212.726 173.53 213.984C172.039 215 170.08 214.896 168.281 214.752C167.787 214.713 167.246 214.653 166.898 214.298C166.283 213.671 166.742 212.516 167.533 212.135C168.325 211.754 169.258 211.906 170.121 212.067ZM68.1132 202.875C83.5169 207.715 99.4797 210.775 115.582 211.975C116.831 212.068 118.51 212.663 118.27 213.893C101.24 211.967 84.3152 209.12 67.5925 205.37C66.5251 205.131 65.1558 204.371 65.5533 203.352C65.9026 202.456 67.1962 202.587 68.1132 202.875ZM124.534 210.346C125.321 210.344 126.08 210.613 126.815 210.893C127.189 211.036 127.601 211.219 127.745 211.592C128.055 212.387 126.958 212.954 126.119 213.107C125.555 213.209 124.99 213.312 124.426 213.414C123.949 213.5 123.436 213.583 122.997 213.377C122.286 213.044 122.1 212.016 122.509 211.344C122.918 210.671 123.748 210.347 124.534 210.346ZM197.071 208.647C203.885 209.943 210.864 210.017 217.8 210.086C218.337 210.092 218.481 210.936 218.098 211.312C217.715 211.687 217.116 211.704 216.579 211.694C210.105 211.566 203.622 210.884 197.167 211.393C196.464 211.448 195.734 211.514 195.074 211.267C194.414 211.02 193.851 210.353 193.977 209.659C194.085 209.061 194.668 208.642 195.264 208.526C195.861 208.411 196.474 208.534 197.071 208.647ZM212.465 101.831C204.75 102.982 198.268 109.849 197.563 117.618C196.904 124.873 194.901 131.929 193.476 139.073C188.898 162.016 190.286 185.794 186.239 208.837C187.717 206.145 188.116 203.011 188.488 199.963L198.303 119.587C198.564 117.448 198.831 115.284 199.599 113.272C201.699 107.77 207.126 104.315 212.465 101.831ZM177.386 205.931C177.807 206.064 178.237 206.24 178.518 206.58C178.798 206.921 178.868 207.471 178.562 207.788C178.331 208.027 177.969 208.071 177.637 208.1C176.553 208.196 175.469 208.291 174.384 208.387C173.799 208.439 173.194 208.489 172.636 208.304C172.078 208.119 171.576 207.635 171.559 207.048C171.532 206.053 172.76 205.553 173.753 205.488C174.977 205.408 176.217 205.559 177.386 205.931ZM200.223 122.722C199.326 123.044 199.085 124.178 198.984 125.126L195.598 156.654C195.398 158.521 197.809 159.712 199.629 159.25C201.449 158.788 202.839 157.366 204.413 156.341C205.986 155.317 208.205 154.727 209.65 155.926C211.283 157.281 213.701 155.776 215.12 154.197C216.539 152.618 218.386 150.715 220.404 151.374C218.037 153.638 215.67 155.902 213.303 158.166C212.518 158.917 211.826 160.417 212.818 160.86C215.538 159.896 217.996 158.205 219.87 156.011C220.737 155.983 220.778 157.345 220.294 158.064C218.472 160.776 214.183 161.38 213.079 164.455C210.502 171.632 202.463 176.4 194.929 175.219C193.384 174.977 192.613 177.01 192.427 178.563C191.685 184.755 190.944 190.948 190.203 197.141C190.032 198.566 189.872 200.073 190.459 201.383C191.438 203.567 194.055 204.394 196.376 204.982C200.736 206.086 205.167 207.199 209.661 207.04C214.155 206.881 218.802 205.275 221.648 201.793C220.86 200.769 219.105 202.081 217.957 201.489C216.834 200.91 217.43 198.981 218.636 198.602C219.841 198.223 221.114 198.826 222.233 199.411C222.937 198.039 223.66 196.57 223.515 195.035C223.371 193.5 221.961 191.982 220.459 192.327C219.471 192.554 219.069 190.843 219.865 190.216C220.661 189.589 221.805 189.792 222.791 190.026C222.846 186.322 222.901 182.617 222.955 178.912C222.966 178.156 222.969 177.362 222.611 176.696C222.252 176.03 221.402 175.564 220.721 175.892C219.792 176.34 218.987 174.758 219.608 173.936C220.23 173.114 221.403 173.007 222.433 172.972C222.513 169.681 222.3 166.384 221.798 163.131C217.92 165.074 217.242 170.201 216.851 174.521C216.101 182.806 214.591 191.022 212.349 199.032C211.846 200.827 211.281 202.662 210.107 204.109C208.932 205.556 206.998 206.539 205.195 206.068C205.599 204.753 206.976 204.046 207.985 203.109C209.8 201.422 210.475 198.871 211.066 196.465C213.113 188.149 215.172 179.732 215.146 171.168L215.142 170.593C215.129 168.963 215.112 167.309 215.649 165.777C216.25 164.065 217.755 162.517 219.569 162.508C221.483 162.499 221.939 159.845 221.769 157.939C221.178 151.369 220.589 144.799 219.999 138.229C219.811 136.131 219.619 134.012 218.982 132.004C216.627 124.579 207.554 120.089 200.223 122.722ZM229.091 202.853C229.991 203.094 230.863 204.019 230.489 204.871C230.133 205.686 229.012 205.731 228.127 205.647C227.694 205.606 227.232 205.554 226.894 205.28C226.301 204.801 226.385 203.784 226.941 203.262C227.496 202.739 228.355 202.655 229.091 202.853ZM121.034 201.942C121.626 202.07 122.242 202.243 122.667 202.673C123.092 203.104 123.233 203.871 122.81 204.304C122.465 204.659 121.908 204.665 121.414 204.648C120.703 204.623 119.993 204.598 119.282 204.573C118.87 204.558 118.431 204.534 118.1 204.289C117.394 203.764 117.704 202.534 118.462 202.087C119.22 201.641 120.174 201.756 121.034 201.942ZM66.2797 195.495C70.2582 197.345 74.6284 198.152 78.9505 198.905C87.7 200.429 96.476 201.802 105.273 203.023C106.504 203.193 107.867 203.435 108.618 204.426C105.211 204.659 101.806 204.091 98.4389 203.526C87.3382 201.662 76.2374 199.798 65.1371 197.934C63.9731 197.738 62.4709 197.092 62.6976 195.934C62.9662 194.562 65.0116 194.905 66.2797 195.495ZM135.354 156.176C134.967 157.726 135.041 159.349 135.094 160.946C135.423 170.917 134.832 180.917 133.329 190.779C132.971 193.13 134.375 195.48 136.306 196.868C138.237 198.257 140.615 198.853 142.95 199.303C148.214 200.317 153.593 200.732 158.951 200.54C160.988 200.466 163.11 200.278 164.852 199.22C166.502 198.217 167.62 196.549 168.605 194.889C172.783 187.845 175.522 179.952 176.606 171.834C161.579 171.766 146.641 166.096 135.354 156.176ZM174.657 195.705C175.683 196.044 176.709 196.383 177.735 196.721C178.077 196.834 178.444 196.965 178.647 197.263C178.99 197.766 178.657 198.502 178.126 198.801C177.596 199.099 176.951 199.083 176.343 199.059C175.235 199.015 174.012 198.922 173.238 198.127C172.466 197.333 172.731 195.619 173.837 195.547C174.116 195.529 174.391 195.618 174.657 195.705ZM228.439 195.854C229.049 195.952 229.693 196.064 230.163 196.465C230.633 196.866 230.826 197.66 230.393 198.1C230.219 198.278 229.977 198.369 229.741 198.451C228.833 198.767 227.824 199.019 226.926 198.675C226.028 198.331 225.416 197.144 225.98 196.365C226.499 195.65 227.566 195.715 228.439 195.854ZM68.9239 162.662C68.2918 162.962 67.6151 163.303 67.303 163.929C67.0701 164.396 67.0825 164.943 67.0995 165.464C67.3358 172.567 67.6338 179.924 70.8105 186.282C71.6687 187.999 72.7599 189.651 74.305 190.79C75.2406 191.48 76.312 191.959 77.3743 192.432C79.2179 193.253 81.0649 194.073 82.9787 194.714C87.3619 196.182 92.0012 196.679 96.5981 197.168C98.5475 197.375 100.623 197.561 102.372 196.675C104.431 195.632 105.527 193.372 106.413 191.241C111.35 179.358 114.169 166.598 114.697 153.741C114.772 151.913 112.433 151.107 110.609 150.984C96.0441 150.007 82.1148 156.409 68.9239 162.662ZM116.959 153.225C116.585 153.716 116.539 154.374 116.502 154.991C115.63 169.531 112.011 183.902 105.893 197.121C111.722 194.171 116.066 188.442 117.333 182.032C117.768 179.828 117.857 177.572 117.945 175.328C118.222 168.249 118.499 161.172 118.777 154.093C118.791 153.72 118.793 153.31 118.556 153.022C118.164 152.545 117.333 152.734 116.959 153.225ZM119.374 188.641C120.113 188.681 120.808 188.988 121.528 189.167C122.171 189.328 122.366 190.245 122.006 190.802C121.647 191.36 120.954 191.603 120.297 191.695C119.611 191.791 118.873 191.755 118.283 191.392C117.693 191.028 117.311 190.271 117.546 189.619C117.798 188.922 118.633 188.6 119.374 188.641ZM228.863 186.719C229.555 186.862 230.148 187.291 230.717 187.708C231.026 187.934 231.355 188.189 231.456 188.559C231.586 189.031 231.274 189.539 230.845 189.775C230.416 190.01 229.902 190.026 229.414 189.987C228.721 189.932 228.005 189.761 227.482 189.302C226.959 188.844 226.693 188.04 227.019 187.426C227.35 186.802 228.171 186.576 228.863 186.719ZM64.3146 164.73C64.1252 165.067 64.1636 165.481 64.2071 165.865L65.235 174.914C65.7924 179.824 66.5228 185.116 69.9551 188.672C70.5273 188.4 70.2044 187.54 69.8437 187.019C67.0633 183.007 66.5279 177.906 66.0773 173.045C65.8128 170.196 65.5482 167.348 65.2841 164.499C65.0184 164.218 64.5034 164.392 64.3146 164.73ZM247.335 183.265C256.765 183.498 266.194 183.731 275.624 183.964C277.067 184 278.515 184.035 279.943 184.249C279.645 185.281 278.289 185.475 277.215 185.464C267.759 185.376 258.272 184.79 248.867 185.773C248.063 185.857 247.194 185.94 246.497 185.532C245.799 185.124 245.487 184.003 246.128 183.511C246.461 183.256 246.916 183.255 247.335 183.265ZM221.428 181.413C221.635 181.48 221.847 181.553 222.017 181.691C222.581 182.149 222.371 183.13 221.794 183.572C221.218 184.015 220.441 184.066 219.714 184.084C218.958 184.102 218.076 184.043 217.645 183.421C217.104 182.64 217.747 181.485 218.642 181.169C219.538 180.852 220.525 181.117 221.428 181.413ZM228.322 179.507C229.201 179.602 230.057 179.91 230.795 180.398C231.359 180.771 231.246 181.707 230.733 182.146C230.22 182.587 229.487 182.648 228.812 182.624C228.129 182.599 227.416 182.495 226.864 182.093C226.311 181.691 225.982 180.913 226.278 180.298C226.616 179.594 227.546 179.424 228.322 179.507ZM133.329 157.988C132.815 165.389 132.585 172.809 132.639 180.228C132.641 180.541 132.855 180.987 133.123 180.823C133.691 174.588 133.969 168.326 133.957 162.064C133.955 160.677 133.927 159.239 133.329 157.988ZM123.248 176.973C124.058 177.034 124.772 177.505 125.431 177.978C125.634 178.123 125.843 178.279 125.957 178.501C126.191 178.962 125.91 179.555 125.468 179.825C125.026 180.095 124.479 180.116 123.963 180.092C122.787 180.037 121.308 179.397 121.44 178.227C121.53 177.421 122.439 176.913 123.248 176.973ZM230.281 171.989C231.068 172.311 231.878 173.155 231.472 173.903C231.196 174.409 230.525 174.519 229.949 174.525C229.28 174.531 228.611 174.477 227.951 174.361C227.024 174.2 226.882 172.742 227.602 172.136C228.322 171.53 229.41 171.631 230.281 171.989ZM322.039 157.507C322.363 158.05 322.369 158.719 322.365 159.352C322.337 163.83 322.31 168.309 322.282 172.787C322.279 173.331 322.206 173.99 321.712 174.218C321.286 174.416 320.76 174.139 320.522 173.733C320.285 173.327 320.263 172.835 320.256 172.365C320.187 168.367 320.632 164.273 319.5 160.438C319.163 159.299 318.761 157.875 319.641 157.077C320.328 156.453 321.562 156.71 322.039 157.507ZM206.9 156.989C203.506 159.095 199.935 161.261 195.95 161.548C195.225 161.6 194.899 162.466 194.756 163.179C194.112 166.384 193.757 169.648 193.696 172.917C193.692 173.117 193.694 173.332 193.81 173.495C193.993 173.755 194.368 173.766 194.686 173.749C197.794 173.586 200.945 173.261 203.832 172.098C206.719 170.934 209.346 168.825 210.523 165.943C211.699 163.062 211.133 159.386 208.73 157.406C208.214 156.981 207.47 156.636 206.9 156.989ZM180.911 169.594C182.002 169.881 183.093 170.167 184.184 170.454C184.591 170.561 185.044 170.703 185.239 171.077C185.469 171.517 185.201 172.084 184.786 172.356C184.371 172.627 183.854 172.679 183.36 172.723C182.576 172.793 181.769 172.86 181.016 172.629C180.264 172.397 179.571 171.79 179.485 171.008C179.399 170.226 180.15 169.395 180.911 169.594ZM29.6135 109.915C33.6954 111.568 36.7681 115.144 38.6739 119.115C40.5797 123.085 41.447 127.463 42.2034 131.802C43.4552 138.982 44.4519 146.312 43.5394 153.544C42.6263 160.776 39.6034 167.988 33.999 172.648C38.0814 172.867 42.9559 172.705 45.1721 169.269C46.1666 167.728 48.3076 167.045 50.0105 167.727C48.9397 166.801 49.7481 165.078 50.543 163.906C53.7995 159.107 56.0332 153.591 56.8321 147.846C58.38 136.707 54.4875 125.418 48.7124 115.768C44.9658 109.507 36.2254 106.828 29.6135 109.915ZM126.401 167.616C127.243 167.948 127.047 169.34 126.26 169.787C125.473 170.234 124.492 170.033 123.614 169.81C123.205 169.706 122.771 169.584 122.493 169.266C121.845 168.524 122.589 167.27 123.549 167.048C124.509 166.826 125.484 167.255 126.401 167.616ZM156.684 114.015C153.08 114.079 149.297 114.518 146.354 116.601C145.381 117.29 144.497 118.191 144.142 119.329C143.787 120.467 144.086 121.865 145.073 122.533C147.568 124.223 148.584 127.384 149.052 130.36C149.519 133.337 149.632 136.454 150.988 139.144C151.688 140.532 152.691 141.742 153.743 142.886C159.445 149.086 166.884 153.673 174.985 155.985C176.41 156.392 178.222 157.271 177.921 158.721C166.266 156.277 155.638 149.244 148.832 139.472C146.764 145.823 142.685 151.502 137.327 155.491C147.778 164.385 161.303 169.595 175.02 170.013C175.642 170.032 176.345 170.009 176.764 169.55C177.039 169.249 177.125 168.826 177.199 168.426C179.141 157.985 180.509 147.438 181.296 136.847C181.565 133.224 181.762 129.541 180.979 125.993C180.196 122.446 178.306 118.997 175.217 117.085C173.314 115.907 171.086 115.378 168.882 114.985C164.86 114.268 160.768 113.942 156.684 114.015ZM228.297 164.827C229.243 164.827 230.435 165.104 230.601 166.034C230.766 166.961 229.71 167.651 228.775 167.77C228.092 167.858 227.349 167.775 226.807 167.35C226.265 166.925 226.013 166.092 226.389 165.515C226.775 164.923 227.591 164.826 228.297 164.827ZM298.122 146.208C296.387 152.928 295.375 159.809 294.366 166.674C294.315 167.016 294.286 167.42 294.544 167.649C297.248 164.291 299.728 160.752 301.963 157.064C302.184 156.7 302.4 156.224 302.153 155.878C301.593 155.095 301.033 154.312 300.473 153.529C300.058 152.948 299.629 152.182 299.995 151.568C300.292 151.069 300.957 150.964 301.535 150.911L306.286 150.473C306.234 150.179 306.055 149.926 305.881 149.683C304.609 147.913 303.222 146.052 301.185 145.275C300.057 144.845 298.424 145.039 298.122 146.208ZM78.1234 76.6994C74.651 77.2823 70.8897 78.2869 68.8747 81.1742C67.7468 82.79 67.3319 84.7857 67.0006 86.7283C65.6974 94.3696 65.2904 102.163 65.7907 109.898C80.7602 102.934 98.2755 101.61 114.121 106.247C115.465 106.641 117.128 107.832 116.423 109.042C104.536 104.646 91.2962 103.99 79.0336 107.191C75.0654 108.227 71.2091 109.651 67.264 110.77C61.4007 112.432 55.3446 113.415 49.2563 113.692C60.3446 128.747 61.7795 150.304 52.7847 166.696C58.3811 165.637 63.6395 163.285 68.8001 160.874C76.5042 157.273 84.1755 153.477 92.3602 151.165C100.544 148.854 109.393 148.098 117.511 150.632C118.46 150.928 118.984 149.558 119.022 148.564L120.781 102.475C121.048 95.493 121.07 87.773 116.499 82.4887C112.454 77.8126 105.858 76.35 99.698 75.8242C92.5078 75.2103 85.2401 75.5054 78.1234 76.6994ZM185.372 162.243C185.599 162.391 185.833 162.578 185.887 162.845C185.995 163.384 185.337 163.729 184.807 163.879C184.038 164.097 183.245 164.316 182.449 164.232C181.654 164.148 180.844 163.691 180.582 162.936C180.321 162.179 180.847 161.187 181.646 161.172C182.958 161.148 184.274 161.526 185.372 162.243ZM298.285 133.241C295.389 134.865 291.929 135.459 288.658 134.892C289.077 136.059 290.911 136.466 290.92 137.705C290.926 138.46 290.215 138.992 289.811 139.629C289.5 140.119 289.365 140.698 289.241 141.266C288.075 146.602 287.407 152.047 287.245 157.508C287.217 158.449 287.451 159.692 288.387 159.794C290.325 160.006 292.15 161.093 293.26 162.695C294.171 156.97 295.08 151.246 295.99 145.52C296.201 144.192 296.378 142.708 295.6 141.611C294.529 140.102 295.461 138.035 296.4 136.44L298.285 133.241ZM125.869 157.986C126.858 158.184 127.982 159.037 127.607 159.973C127.377 160.549 126.68 160.782 126.061 160.815C125.44 160.848 124.795 160.757 124.214 160.977C123.531 161.236 122.727 160.631 122.643 159.905C122.56 159.178 123.064 158.474 123.722 158.154C124.38 157.835 125.153 157.843 125.869 157.986ZM228.286 157.102C228.909 157.188 229.566 157.326 230.019 157.761C230.473 158.197 230.597 159.027 230.114 159.43C229.955 159.564 229.754 159.634 229.557 159.701C228.701 159.993 227.785 160.279 226.907 160.063C226.029 159.846 225.266 158.914 225.57 158.062C225.92 157.08 227.252 156.959 228.286 157.102ZM285.004 145.333C284.344 145.492 283.863 146.043 283.428 146.563L280.808 149.701C280.296 150.315 281.197 151.169 281.993 151.236C282.789 151.302 283.719 151.115 284.285 151.679C284.879 152.268 284.634 153.297 284.148 153.979C283.662 154.66 282.973 155.217 282.679 156C282.24 157.172 282.967 158.641 284.165 159.001C284.816 159.197 285.729 158.895 285.734 158.216C285.768 154.244 286 150.274 286.43 146.325C286.503 145.65 285.664 145.174 285.004 145.333ZM152.052 147.306C152.554 147.639 152.878 148.173 153.213 148.674C156.088 152.978 160.896 155.936 166.034 156.562C167.222 156.707 168.624 156.851 169.22 157.89C168.1 158.998 166.276 158.863 164.742 158.506C159.302 157.241 154.318 154.098 150.831 149.735C150.274 149.039 149.767 147.981 150.387 147.341C150.806 146.909 151.55 146.972 152.052 147.306ZM282.179 128.285C278.337 129.23 274.501 130.562 271.387 133.002C268.274 135.442 265.958 139.15 265.982 143.105C266.013 148.122 263.549 153.093 259.537 156.105L266.291 156.9C267.082 156.994 267.969 157.061 268.588 156.56C269.494 155.828 269.262 154.422 269.033 153.279C268.804 152.137 268.855 150.628 269.941 150.208C271.291 149.686 272.407 151.558 272.203 152.99C271.998 154.422 271.167 155.801 271.427 157.224C274.626 157.677 277.835 158.06 281.051 158.37C280.411 157.845 280.341 156.85 280.665 156.088C280.989 155.326 281.617 154.744 282.228 154.185C282.879 153.59 281.941 152.541 281.064 152.447C280.188 152.353 279.156 152.563 278.538 151.935C277.77 151.152 278.346 149.842 279.001 148.963C280.274 147.257 281.851 145.201 281.032 143.237C279.035 138.448 279.475 132.714 282.179 128.285ZM134.856 115.2C134.321 128.31 134.394 141.445 135.076 154.548C140.084 151.831 143.743 147.05 146.013 141.823C147.397 138.635 148.324 135.121 147.77 131.688C147.358 129.129 146.146 126.765 144.737 124.589C142.238 120.729 138.976 117.245 134.856 115.2ZM250.982 108.919C252.781 108.587 254.156 110.807 253.849 112.61C253.543 114.413 252.232 115.847 251.191 117.35C249.752 119.427 248.768 121.779 247.794 124.11C245.478 129.659 244.577 135.79 245.198 141.77C245.564 145.291 246.528 148.907 248.909 151.526C251.289 154.146 255.37 155.455 258.507 153.816C261.201 152.408 262.545 149.303 263.163 146.327C263.781 143.35 263.891 140.234 265.058 137.427C267.212 132.249 272.522 129.12 277.775 127.156C269.878 126.084 262.733 120.581 259.679 113.22C258.803 111.109 258.145 108.73 256.328 107.343C254.511 105.958 251.089 106.636 250.982 108.919ZM184.231 151.151C184.786 151.258 185.331 151.419 185.856 151.632C186.72 151.984 187.648 152.956 187.093 153.706C186.788 154.115 186.205 154.165 185.696 154.178C184.766 154.201 183.764 154.204 183.005 153.668C182.246 153.131 181.983 151.833 182.748 151.305C183.169 151.015 183.73 151.055 184.231 151.151ZM226.097 148.938C226.85 149.002 227.598 149.106 228.339 149.251C228.705 149.322 229.1 149.422 229.33 149.716C229.68 150.161 229.46 150.86 229.018 151.213C228.577 151.567 227.989 151.666 227.43 151.754C226.576 151.888 225.665 152.015 224.877 151.659C224.089 151.303 223.551 150.261 224.033 149.544C224.453 148.918 225.346 148.875 226.097 148.938ZM11.1666 144.894C10.5298 144.887 10.3095 145.737 10.3288 146.374C10.3843 148.203 10.7546 150.023 11.4185 151.728C11.6033 151.917 11.8179 151.523 11.7921 151.26L11.1666 144.894ZM133.533 149.604C133.135 149.819 132.984 150.391 133.223 150.775L133.232 150.789L133.224 150.798C133.213 150.811 133.202 150.826 133.189 150.844C133.03 151.086 133.254 151.47 133.543 151.45C133.739 150.855 133.735 150.196 133.533 149.604ZM125.256 147.015C126.118 147.206 127.053 147.921 126.839 148.777C126.697 149.344 126.1 149.677 125.529 149.803C124.958 149.931 124.355 149.922 123.81 150.134C123.116 150.403 122.281 149.844 122.139 149.114C121.996 148.384 122.443 147.622 123.088 147.252C123.734 146.882 124.53 146.855 125.256 147.015ZM130.243 26.2549C130.293 65.7213 131.2 105.186 132.962 144.613L133.147 148.69L133.175 147.378C133.226 144.314 133.181 141.248 133.137 138.183C132.61 102.259 132.084 66.3347 131.558 30.4108C131.536 28.9064 131.417 27.1945 130.243 26.2549ZM186.692 141.244C187.175 141.389 187.66 141.608 187.974 142.003C188.287 142.399 188.377 143.006 188.067 143.404C187.766 143.79 187.223 143.863 186.736 143.906L184.66 144.09C184.32 144.12 183.955 144.145 183.66 143.975C183.422 143.837 183.264 143.586 183.192 143.32C182.974 142.52 183.514 141.653 184.262 141.297C185.01 140.94 185.898 141.006 186.692 141.244ZM19.439 110.351C17.2802 112.472 16.1573 115.404 15.1199 118.247C12.229 126.169 9.48179 134.578 10.9082 142.89C11.3492 142.971 11.5595 142.371 11.5922 141.923C12.1786 133.905 13.7809 125.961 16.3489 118.342C17.3287 115.435 18.5072 112.483 20.6837 110.321C20.6537 109.794 19.8151 109.981 19.439 110.351ZM284.834 127.681C284.458 127.774 284.214 128.129 284.017 128.463C282.16 131.615 281.285 135.338 281.544 138.987C281.652 140.494 282.136 142.23 283.544 142.779C284.688 141.681 285.832 140.582 286.976 139.483C287.158 139.309 287.344 139.128 287.444 138.897C287.695 138.319 287.337 137.674 287.007 137.138C285.376 134.484 284.152 131.121 285.51 128.319C285.679 127.97 285.211 127.588 284.834 127.681ZM308.61 124.28C308.427 124.375 308.286 124.533 308.15 124.687C304.772 128.507 301.51 132.429 298.369 136.446C297.713 137.285 297.029 138.232 297.093 139.295C297.151 140.239 297.815 141.062 298.621 141.56C299.427 142.057 300.365 142.284 301.286 142.503C301.533 142.561 301.8 142.618 302.032 142.516C302.245 142.422 302.38 142.212 302.503 142.014C304.426 138.914 306.376 135.752 307.284 132.219C307.478 131.466 308.131 130.939 308.653 130.363C309.679 129.23 310.28 127.721 310.314 126.192C310.326 125.675 310.266 125.13 309.966 124.707C309.667 124.285 309.068 124.041 308.61 124.28ZM226.347 139.401C226.812 139.517 227.326 139.693 227.534 140.125C227.902 140.885 227.039 141.679 226.232 141.929C225.606 142.122 224.908 142.189 224.308 141.927C223.708 141.665 223.252 141.003 223.388 140.362C223.63 139.224 225.218 139.122 226.347 139.401ZM126.026 137.74C126.246 137.938 126.45 138.169 126.533 138.452C126.701 139.022 126.303 139.649 125.758 139.883C125.213 140.117 124.575 140.027 124.026 139.803C123.447 139.567 122.883 139.115 122.81 138.495C122.726 137.785 123.369 137.132 124.076 137.029C124.783 136.927 125.494 137.264 126.026 137.74ZM188.626 131.501C189.191 131.73 189.249 132.584 188.86 133.053C188.471 133.522 187.821 133.678 187.214 133.729C186.607 133.781 185.979 133.758 185.411 133.98C184.539 134.322 183.591 133.268 183.798 132.355C184.006 131.442 184.987 130.875 185.922 130.831C186.857 130.788 187.759 131.147 188.626 131.501ZM225.38 130.127C226.18 130.166 226.971 130.377 227.685 130.739C227.995 130.897 228.316 131.114 228.404 131.451C228.585 132.143 227.717 132.618 227.013 132.753C226.39 132.873 225.758 132.944 225.124 132.966C224.342 132.993 223.397 132.843 223.085 132.124C222.843 131.566 223.138 130.881 223.634 130.529C224.13 130.176 224.772 130.097 225.38 130.127ZM276.973 79.014C272.304 79.767 267.614 80.3918 262.911 80.8859C259.504 81.2443 256.295 83.1773 254.385 86.0216C253.993 86.6056 253.723 87.5384 254.329 87.8963C256.043 85.9187 258.37 84.4799 260.906 83.8297C261.812 83.5968 262.803 83.4701 263.658 83.8512C264.512 84.2317 265.124 85.2798 264.737 86.1318C264.143 87.44 262.249 87.0737 260.815 86.9866C256.828 86.7435 253.379 91.3071 254.702 95.0763C255.63 91.4778 260.768 89.9157 263.647 92.2648C266.527 94.6144 266.175 99.7739 263.095 101.853C262.077 102.541 260.77 103.02 260.306 104.157C259.908 105.131 260.291 106.232 260.673 107.213C261.272 108.753 261.872 110.293 262.472 111.833C263.729 115.061 265.064 118.407 267.608 120.759C269.565 122.567 272.102 123.643 274.69 124.274C284.022 126.549 294.528 122.929 300.478 115.388C300.955 114.785 302.043 115.358 302.128 116.123C302.213 116.888 301.69 117.576 301.172 118.145C298.509 121.078 295.15 123.376 291.452 124.797C289.703 125.469 287.626 126.195 287.088 127.989C286.643 129.475 287.58 131.117 288.924 131.89C290.268 132.664 291.907 132.729 293.449 132.56C296.524 132.224 299.499 131.02 301.943 129.124C302.683 128.549 303.401 127.878 303.73 127C304.042 126.169 303.97 125.249 303.895 124.365L303.829 123.604C303.541 120.305 303.167 116.968 301.823 113.952C301.176 112.501 300.31 111.142 299.834 109.626C299.247 107.757 299.282 105.751 298.887 103.833C298.493 101.914 297.493 99.9203 295.666 99.213C296.149 97.9868 297.353 97.2151 298.133 96.1528C298.912 95.0905 299.026 93.235 297.799 92.755C297.212 92.526 296.544 92.7233 295.985 93.0139C293.628 94.2379 292.356 97.2337 293.113 99.7795C293.606 101.441 290.981 102.556 289.568 101.552C288.155 100.549 287.806 98.6375 287.528 96.9267C286.448 90.2951 284.279 83.145 278.615 79.5301C278.12 79.2141 277.553 78.9201 276.973 79.014ZM125.531 126.057C126.276 126.299 127.018 126.968 126.863 127.735C126.717 128.461 125.882 128.8 125.153 128.925C124.118 129.102 122.768 128.899 122.478 127.89C122.201 126.93 123.206 126.011 124.199 125.906C124.647 125.858 125.103 125.918 125.531 126.057ZM244.956 112.243C244.261 112.901 243.923 113.841 243.608 114.744C242.896 116.781 242.175 118.878 242.257 121.034C242.31 122.422 241.504 123.673 240.93 124.937C240.355 126.202 240.043 127.822 240.944 128.878C243.096 127.069 243.613 124.023 244.086 121.251C244.652 117.937 245.422 114.501 247.565 111.911C246.815 111.317 245.65 111.585 244.956 112.243ZM188.24 121.48C188.794 121.658 189.421 122.014 189.427 122.596C189.436 123.303 188.565 123.629 187.869 123.756C187.519 123.82 187.171 123.884 186.821 123.948C185.932 124.111 184.979 124.267 184.152 123.9C183.325 123.535 182.774 122.419 183.314 121.693C183.663 121.224 184.305 121.096 184.889 121.06C186.019 120.99 187.162 121.133 188.24 121.48ZM107.355 111.257C108.328 111.723 109.417 112.64 109.057 113.657C99.0297 111.471 88.3179 112.552 78.9302 116.697C74.7064 118.563 70.741 121.029 66.3691 122.516C64.8737 123.025 63.2409 123.415 61.7297 122.954C60.2191 122.493 58.9589 120.889 59.4005 119.373C59.8154 117.949 61.4007 117.272 62.8056 116.797C69.7284 114.453 76.7722 112.466 83.8991 110.845C91.675 109.076 100.161 107.816 107.355 111.257ZM251.326 111.137C250.61 111.134 250.008 111.659 249.537 112.199C248.395 113.508 247.583 115.076 246.98 116.705C246.23 118.728 245.786 120.864 245.669 123.019C247.742 119.452 249.959 115.969 252.312 112.58C252.72 111.992 252.042 111.14 251.326 111.137ZM238.621 117.491C238.425 117.492 238.218 117.5 238.052 117.605C237.678 117.841 237.73 118.394 237.841 118.822C238.192 120.179 238.678 121.502 239.29 122.764C239.658 120.986 240.247 119.254 241.041 117.622C240.238 117.529 239.429 117.486 238.621 117.491ZM81.5042 112.908C75.5691 114.732 69.6346 116.556 63.6994 118.38C62.9905 118.598 62.1679 118.934 62.0169 119.66C62.4992 120.365 63.4185 120.663 64.271 120.622C65.1236 120.581 65.9326 120.253 66.723 119.931C72.744 117.471 78.7651 115.01 84.7861 112.55C83.7108 112.25 82.5716 112.58 81.5042 112.908ZM144.134 116.237C143.815 116.79 143.151 117.025 142.654 117.425C142.157 117.825 141.865 118.686 142.39 119.049C143.194 118.245 143.998 117.44 144.802 116.635C144.635 116.429 144.394 116.285 144.134 116.237ZM206.753 115.809C211.068 116.258 215.421 116.488 219.742 116.116C220.86 116.019 222.197 115.974 222.86 116.879C222.023 117.732 220.706 117.835 219.512 117.886C215.026 118.078 210.541 118.27 206.056 118.462C205.181 118.5 204.072 118.389 203.789 117.56C203.565 116.908 204.073 116.188 204.711 115.927C205.348 115.665 206.068 115.737 206.753 115.809ZM273.449 111.095C274.493 112.365 274.874 114.151 274.44 115.736C274.332 116.127 274.176 116.511 273.925 116.831C273.269 117.669 272.058 117.916 271.023 117.668C269.988 117.42 269.101 116.761 268.312 116.048C267.498 115.313 266.734 114.475 266.344 113.45C265.952 112.425 265.998 111.179 266.691 110.329C267.262 109.628 268.186 109.292 269.087 109.226C270.726 109.106 272.405 109.825 273.449 111.095ZM128.02 114.047C128.432 114.38 128.363 115.072 128.012 115.468C127.659 115.865 127.123 116.034 126.608 116.161C126.001 116.313 125.363 116.432 124.754 116.287C124.145 116.142 123.575 115.669 123.499 115.049C123.391 114.147 124.335 113.442 125.231 113.301C126.21 113.146 127.25 113.424 128.02 114.047ZM268.672 111.394C268.216 111.986 268.516 113.054 269.257 113.155C270.112 113.272 270.778 114.171 270.64 115.023C270.532 115.693 271.348 116.252 271.996 116.051C272.643 115.85 273.018 115.124 273.004 114.447C272.989 113.769 272.666 113.137 272.299 112.566C271.895 111.938 271.4 111.327 270.718 111.021C270.036 110.715 269.13 110.803 268.672 111.394ZM266.394 50.6206C260.174 51.7598 254.014 54.4764 250.002 59.3639C245.991 64.2514 244.603 71.566 247.739 77.0561C248.848 78.9959 250.54 80.688 252.667 81.371C254.795 82.0539 257.368 81.5513 258.787 79.8258C260.397 77.8686 263.647 79.7456 266.071 79.0027C269.422 77.9749 272.906 77.379 276.409 77.2331C277.239 77.1986 278.096 77.1935 278.871 77.4937C279.712 77.8199 280.377 78.4741 281.016 79.1112C283.233 81.3201 285.496 83.5928 286.808 86.4343C288.89 90.9396 288.375 96.4337 291.005 100.643C291.312 98.0032 291.619 95.3635 291.927 92.7239C292.04 91.7447 292.167 90.7276 292.697 89.8954C293.226 89.0638 294.285 88.4797 295.211 88.8167C296.846 89.4103 298.549 90.048 299.722 91.3325C300.895 92.6165 301.33 94.7569 300.202 96.081C299.112 97.3604 300.348 99.2096 300.927 100.788C301.93 103.522 300.751 106.646 301.539 109.449C302.192 111.772 304.079 113.506 305.881 115.109C306.408 115.578 307.023 116.078 307.726 116.014C308.314 115.96 308.787 115.522 309.188 115.089C311.584 112.507 313.224 109.233 313.859 105.768C314.115 104.37 313.628 102.334 312.221 102.525C312.606 99.1712 315.689 96.886 317.499 94.0372C319.452 90.9639 319.913 87.1856 320.002 83.5459C320.092 79.8874 319.735 75.9119 317.297 73.1829C314.368 69.9044 308.677 69.6596 305.477 72.6741C304.679 73.426 303.628 74.4188 302.677 73.8749C303.423 72.5373 304.168 71.1996 304.914 69.8614C306.13 67.6814 307.371 65.4217 307.618 62.9381C308.105 58.0375 304.375 53.3971 299.761 51.6739C295.147 49.9501 289.939 50.6647 285.311 52.3506C284.151 52.7729 282.781 53.6803 283.095 54.8738C283.278 55.5652 283.978 55.9825 284.337 56.601C284.561 56.986 284.539 57.1092 284.285 57.4213C284.133 57.6096 283.857 58.1551 283.61 58.0483C280.986 55.01 278.148 51.8288 274.302 50.6794C271.752 49.9179 269.012 50.1412 266.394 50.6206ZM236.596 113.289C236.268 113.095 235.64 112.967 235.701 113.344C235.879 114.264 236.708 114.949 237.601 115.23C238.496 115.511 239.455 115.464 240.392 115.413C240.757 115.394 241.148 115.365 241.44 115.143C241.684 114.957 241.817 114.663 241.942 114.382C242.155 113.9 242.368 113.419 242.581 112.938C240.842 111.806 238.382 114.347 236.596 113.289ZM186.363 110.145C187.095 110.2 187.821 110.328 188.527 110.526C189.14 110.697 189.843 111.056 189.874 111.69C189.913 112.527 188.826 112.868 187.992 112.94C187.143 113.013 186.295 113.087 185.446 113.16C184.828 113.214 184.129 113.241 183.674 112.818C183.064 112.251 183.31 111.151 183.971 110.643C184.632 110.136 185.532 110.083 186.363 110.145ZM206.207 109.963C210.266 110.507 214.379 110.638 218.464 110.354C218.943 110.321 219.465 110.292 219.859 110.567C220.254 110.84 220.352 111.546 219.922 111.759C219.791 111.824 219.641 111.83 219.495 111.836C214.557 112.022 209.619 112.208 204.68 112.395C204.23 112.412 203.734 112.414 203.388 112.126C202.768 111.61 203.124 110.506 203.835 110.125C204.546 109.744 205.408 109.856 206.207 109.963ZM245.611 105.941C244.035 106.026 242.43 106.173 240.974 106.784C239.519 107.395 238.213 108.545 237.778 110.063C237.69 110.371 237.657 110.751 237.894 110.967C238.078 111.136 238.355 111.138 238.604 111.128C241.223 111.025 243.831 110.636 246.365 109.967C247.625 109.635 249.144 108.834 248.974 107.542C248.884 106.862 248.297 106.331 247.649 106.106C247.001 105.88 246.296 105.905 245.611 105.941ZM63.7277 105.751C63.4761 107.082 63.4145 108.448 63.5457 109.795C63.8713 110.147 64.2999 109.461 64.2722 108.982C64.2094 107.89 64.0262 106.804 63.7277 105.751ZM148.057 104.124C157.135 104.534 166.213 104.945 175.292 105.355C176.139 105.393 177.264 105.717 177.215 106.564C176.131 107.26 174.733 107.116 173.454 106.967C165.362 106.024 157.176 105.894 149.058 106.579C148.357 106.638 147.613 106.695 146.987 106.374C146.361 106.052 145.958 105.195 146.364 104.621C146.719 104.119 147.443 104.096 148.057 104.124ZM126.045 103.172C126.444 103.232 126.86 103.337 127.15 103.618C127.813 104.261 127.404 105.482 126.606 105.948C125.808 106.413 124.82 106.348 123.9 106.269C122.89 106.181 122.563 104.666 123.226 103.9C123.889 103.133 125.042 103.021 126.045 103.172ZM157.973 99.814C172.768 100.582 187.563 101.349 202.358 102.117C203.15 102.158 204.199 102.463 204.157 103.255C201.718 103.695 199.191 103.645 196.77 103.112L198.92 104.962C197.895 105.608 196.804 106.275 195.592 106.302C194.381 106.329 193.063 105.436 193.097 104.225C193.709 103.942 194.322 103.659 194.936 103.376C182.984 102.352 170.976 101.979 158.984 102.257C158.292 102.274 157.554 102.28 156.969 101.909C156.385 101.538 156.089 100.636 156.573 100.141C156.919 99.7869 157.479 99.7886 157.973 99.814ZM253.773 101.793C253.24 101.822 252.788 102.176 252.374 102.514C251.885 102.914 251.395 103.315 250.905 103.716C250.392 104.136 249.836 104.637 249.806 105.3C249.789 105.659 250.063 106.086 250.414 106.005C250.511 105.982 250.596 105.923 250.679 105.865C251.845 105.042 253.012 104.219 254.179 103.396C254.417 103.228 254.671 103.038 254.748 102.757C254.89 102.242 254.306 101.763 253.773 101.793ZM271.922 97.4819C271.968 98.6816 271.372 99.8067 271.16 100.989C270.948 102.171 271.352 103.676 272.521 103.953C272.866 104.034 272.966 104.528 272.771 104.824C272.577 105.12 272.209 105.248 271.86 105.311C270.777 105.508 269.495 105.16 268.997 104.179C268.748 103.687 268.729 103.115 268.715 102.564C268.677 101.09 268.639 99.6156 268.601 98.1406C268.575 97.1325 268.688 95.891 269.611 95.4845C270.71 94.9994 271.876 96.2817 271.922 97.4819ZM255.829 104.171C255.615 104.271 255.47 104.501 255.472 104.737L255.419 104.75C255.537 105.013 255.963 105.054 256.129 104.819C256.296 104.583 256.116 104.196 255.829 104.171ZM253.787 96.4643C253.297 96.4767 252.75 96.5655 252.461 96.9601C252.152 97.3824 252.276 98.002 252.595 98.4181C252.912 98.8342 253.381 99.1022 253.818 99.3906C255.658 100.604 257.128 102.373 257.985 104.405C258.568 103.639 259.15 102.872 259.732 102.105C260.168 101.532 260.626 100.877 260.535 100.164C260.468 99.6489 260.122 99.2153 259.755 98.8484C258.198 97.2908 255.989 96.4077 253.787 96.4643ZM66.1446 84.6008C65.4605 84.6568 65.1061 85.4251 64.8907 86.077C64.5628 87.0703 64.2354 88.0642 63.9075 89.0575C63.5491 90.1424 63.1889 91.2398 63.0906 92.3784C63.0255 93.1332 63.077 93.8925 63.1284 94.6478C63.2896 97.0076 63.4507 99.3674 63.6113 101.727C63.6423 102.183 63.9895 102.813 64.3671 102.555C64.2105 96.5276 64.8092 90.4805 66.1446 84.6008ZM259.677 93.2779C259.056 93.5143 258.396 93.9303 258.306 94.5884C258.216 95.2471 259.186 95.8582 259.562 95.3104C260.042 94.611 261.241 94.9762 261.638 95.7259C262.035 96.4756 261.918 97.3773 261.912 98.2253C261.906 99.074 262.101 100.047 262.841 100.462C262.965 99.3278 263.089 98.1931 263.213 97.0585C263.366 95.6575 263.357 93.9202 262.126 93.2349C261.389 92.8245 260.465 92.9777 259.677 93.2779ZM279.621 92.6368C280.629 92.6815 281.706 93.0331 282.257 93.8783C282.809 94.7235 282.516 96.1075 281.544 96.38C280.158 96.7684 278.861 94.8146 277.505 95.2996C276.658 95.6032 276.135 96.795 275.251 96.6243C274.702 96.518 274.399 95.8616 274.508 95.3138C274.617 94.7659 275.026 94.3278 275.463 93.9812C276.63 93.0569 278.135 92.5707 279.621 92.6368ZM125.245 91.639C126.217 91.7956 127.169 92.8596 126.656 93.7002C126.513 93.9366 126.279 94.1039 126.034 94.2328C125.428 94.5517 124.681 94.6602 124.055 94.3821C123.429 94.1039 122.989 93.382 123.158 92.7182C123.371 91.8843 124.396 91.5016 125.245 91.639ZM281.202 86.1058C281.871 86.7418 282.391 87.9393 281.643 88.4792C280.851 89.0496 279.902 88.0863 279.144 87.4706C278.298 86.7831 277.15 86.4795 276.075 86.6587C275.386 86.7729 274.738 87.072 274.047 87.1721C273.357 87.2727 272.554 87.1138 272.177 86.527C271.782 85.9108 272.033 85.039 272.577 84.5494C273.12 84.0592 273.875 83.88 274.604 83.8133C276.994 83.5945 279.462 84.4521 281.202 86.1058ZM125.212 84.157C125.809 84.507 126.13 85.3318 125.798 85.9385C125.36 86.7407 124.209 86.7294 123.322 86.5089C123.003 86.4298 122.666 86.3252 122.455 86.073C121.95 85.4709 122.516 84.5262 123.221 84.1785C123.841 83.8727 124.615 83.8071 125.212 84.157Z" fill="#00160A"/>
<path fill-rule="evenodd" clip-rule="evenodd" d="M45.1179 164.794C45.1993 165.021 45.2745 165.274 45.1813 165.495C45.0145 165.893 44.4695 165.909 44.0375 165.905C41.001 165.881 38.1782 168.49 37.9622 171.519C37.9396 171.839 37.4998 171.985 37.2154 171.837C36.9304 171.689 36.784 171.369 36.6856 171.063C36.131 169.342 36.4883 167.413 37.3731 165.835C38.2573 164.257 39.6261 162.999 41.1124 161.969C41.6896 161.57 42.4076 161.186 43.06 161.444C43.4914 161.615 43.773 162.026 44.0076 162.426C44.4497 163.179 44.8217 163.972 45.1179 164.794ZM43.354 164.449C43.0866 163.631 42.0023 163.338 41.1915 163.627C40.3814 163.916 39.7906 164.604 39.2394 165.265C38.7164 165.891 38.1697 166.574 38.1081 167.387C39.5051 165.908 41.3623 164.867 43.354 164.449Z" fill="#FFB61D"/>
</svg>
