<svg width="650" height="345" viewBox="0 0 650 345" fill="none" xmlns="http://www.w3.org/2000/svg">
<path fill-rule="evenodd" clip-rule="evenodd" d="M578 238C578 106.556 471.444 0 340 0C208.556 0 91.9321 106.78 102 238C114 394.398 578 364.609 578 238Z" fill="#9BB4FB"/>
<path d="M152.118 234.989C152.896 234.919 153.912 235 154.133 235.75C154.14 236.654 152.994 237.03 152.096 237.141C147.259 237.743 142.421 238.344 137.584 238.946C139.833 240.854 140.056 244.641 138.154 246.895C136.251 249.149 132.615 249.611 130.126 248.03C129.296 247.502 128.588 246.787 127.715 246.333C126.842 245.879 125.689 245.744 124.933 246.374C123.225 247.797 120.648 247.413 118.603 246.539C116.577 245.673 114.577 244.195 114.105 242.042C113.638 239.909 114.803 237.759 116.181 236.064C117.558 234.37 119.223 232.835 120.05 230.814C121.265 227.85 124.85 226.374 128.026 226.793C131.202 227.212 133.983 229.145 136.297 231.362C137.786 232.789 140.202 232.229 142.171 231.614C144.14 230.998 146.613 230.543 147.992 232.078" fill="white"/>
<path fill-rule="evenodd" clip-rule="evenodd" d="M431.405 226.665C431.405 204.468 447.812 199.353 458.223 199.615C468.633 199.876 478.563 206.579 482.427 215.927C486.291 225.275 483.883 236.732 476.571 243.899C469.258 251.066 453.82 251.154 449.369 249.803C444.918 248.451 431.405 239.054 431.405 226.665Z" fill="white"/>
<path fill-rule="evenodd" clip-rule="evenodd" d="M456.928 211.318C460.664 211.019 464.503 212.382 467.213 214.97C471.413 218.981 472.498 225.879 469.731 230.985C466.964 236.091 460.593 238.949 454.94 237.62C449.555 236.355 445.243 231.423 444.707 225.918C444.171 220.414 447.452 214.743 452.491 212.463C453.889 211.83 455.398 211.441 456.928 211.318ZM463.412 213.899C462.09 212.927 460.636 212.114 459.064 211.8C457.276 211.443 455.403 211.756 453.725 212.516C449.462 214.446 446.556 219.446 446.833 224.433C447.111 229.419 450.575 234.021 455.045 235.293C459.515 236.565 464.646 234.383 467.086 230.14C469.525 225.897 469.05 219.932 465.949 216.227C465.203 215.336 464.331 214.575 463.412 213.899Z" fill="#00160A"/>
<path fill-rule="evenodd" clip-rule="evenodd" d="M206.933 228.252C206.84 226.806 206.852 225.345 207.107 223.918C207.301 222.837 207.633 221.785 207.965 220.737C208.679 218.478 209.396 216.213 210.375 214.055C215.175 203.477 226.649 196.313 238.261 196.615C249.872 196.916 260.947 204.65 265.257 215.436C269.567 226.222 266.882 239.442 258.725 247.712C250.569 255.982 237.408 258.853 226.538 254.759C215.668 250.664 207.677 239.844 206.933 228.252Z" fill="white"/>
<path fill-rule="evenodd" clip-rule="evenodd" d="M238.081 97.569C238.141 102.161 236.967 107.071 239.091 111.142C243.027 118.684 254.077 117.282 262.206 114.775C255.525 107.171 248.844 99.568 242.164 91.964C256.003 77.833 269.843 63.702 283.683 49.571C284.837 48.393 286.169 47.134 287.818 47.102C289.72 47.065 291.207 48.655 292.424 50.116C296.958 55.554 301.491 60.991 306.024 66.429C309.759 70.909 313.316 78.165 308.744 81.787C325.895 80.624 343.047 79.46 360.198 78.296C356.986 59.952 362.888 37.372 368.714 19.684C369.295 17.921 369.997 16.003 371.608 15.081C372.736 14.435 374.102 14.409 375.403 14.4C406.717 14.184 438.031 13.968 469.345 13.752C471.241 13.739 473.242 13.752 474.881 14.707C476.287 15.526 477.235 16.931 478.123 18.296C504.615 59.023 521.154 110.174 525.91 158.526C526.506 164.591 534.279 208.024 525.91 209.312C486.055 215.447 493.866 179.326 451.773 184.61C417.189 188.951 423.723 209.312 403.734 213.279C385.778 216.843 324.532 217.729 304.678 218.723C277.443 220.087 275.518 178.914 234.041 180.586C192.565 182.259 193.515 229.354 171.17 223.962C170.239 223.738 160.122 217.854 159.894 217.149C156.601 206.973 154.132 169.727 154.132 169.727L146.333 167.994C146.333 167.994 145.76 148.767 146.333 148.153C147.342 147.07 165.023 149.012 172.675 148.153C170.415 132.454 168.154 116.756 165.893 101.057C165.698 99.701 165.529 98.212 166.266 97.057C167.085 95.774 168.73 95.349 170.221 95.037C190.161 90.871 210.453 88.386 230.809 87.616C235.398 87.442 238.022 92.977 238.081 97.569Z" fill="white"/>
<path fill-rule="evenodd" clip-rule="evenodd" d="M197.843 140.398L188.867 141.038L183.821 92.4761L191.681 91.1841L197.843 140.398Z" fill="#FFCC33"/>
<path fill-rule="evenodd" clip-rule="evenodd" d="M409.833 47.9071C412.264 47.4401 458.897 79.8021 458.414 80.3271C457.931 80.8521 408.871 48.0921 409.833 47.9071Z" fill="#E7EAEE"/>
<path fill-rule="evenodd" clip-rule="evenodd" d="M429.833 47.9041C431.719 47.5681 455.62 63.7271 454.955 64.6691C454.291 65.6101 428.628 48.1181 429.833 47.9041Z" fill="#E7EAEE"/>
<path fill-rule="evenodd" clip-rule="evenodd" d="M404.833 57.9069C403.926 56.3049 430.675 74.8129 429.955 74.6719C423.064 73.3249 405.099 58.3769 404.833 57.9069Z" fill="#E7EAEE"/>
<path fill-rule="evenodd" clip-rule="evenodd" d="M401.672 110.119C402.259 110.582 402.019 111.635 401.356 111.982C400.694 112.329 399.851 112.097 399.265 111.633C397.501 110.234 397.867 107.269 399.411 105.631C400.956 103.993 403.249 103.34 405.423 102.756C406.325 102.514 407.227 102.271 408.129 102.029C409.97 101.535 411.927 101.04 413.753 101.587C415.578 102.134 417.099 104.158 416.391 105.928C415.945 107.041 414.766 107.715 413.586 107.928C412.406 108.141 411.195 107.979 409.999 107.897C407.649 107.737 405.278 107.891 402.968 108.354C402.515 108.445 402.037 108.562 401.713 108.891C401.388 109.22 401.31 109.832 401.672 110.119Z" fill="#00160A"/>
<path fill-rule="evenodd" clip-rule="evenodd" d="M413.505 210.983C412.894 213.509 412.283 216.036 411.672 218.562C411.486 219.334 411.28 220.143 410.738 220.724C409.933 221.588 408.629 221.712 407.45 221.779C370.326 223.906 333.174 225.533 296.006 226.659C293.493 226.735 291.125 225.302 289.476 223.405C287.827 221.507 286.778 219.175 285.752 216.88C287.377 216.488 288.916 217.78 289.905 219.127C290.895 220.475 291.766 222.065 293.304 222.72C294.315 223.152 295.459 223.1 296.557 223.041C332.65 221.103 368.744 219.165 404.837 217.227C406.137 217.157 407.549 217.043 408.515 216.17C409.51 215.272 409.748 213.831 410.33 212.624C410.913 211.417 412.343 210.315 413.505 210.983Z" fill="#00160A"/>
<path fill-rule="evenodd" clip-rule="evenodd" d="M135.798 232.566C134.043 230.691 131.825 229.254 129.396 228.418C127.748 227.851 125.859 227.579 124.311 228.381C122.763 229.183 121.9 231.397 122.988 232.759C123.561 233.476 122.268 234.155 121.372 234.351C118.694 234.938 116.673 237.907 117.432 240.542C118.191 243.176 121.876 244.55 124.002 242.818C124.771 242.191 125.287 241.276 126.121 240.738C126.955 240.199 128.36 240.313 128.617 241.272C129.157 243.294 131.001 244.9 133.078 245.16C134.434 245.329 136.039 244.775 136.459 243.475C137.204 241.171 133.806 238.784 134.963 236.657C135.546 235.584 136.958 235.353 138.174 235.244C142.822 234.825 147.47 234.407 152.118 233.989C152.896 233.919 153.912 234 154.132 234.75C154.14 235.654 152.994 236.03 152.096 236.141C147.259 236.743 142.421 237.344 137.584 237.946C139.833 239.854 140.056 243.641 138.154 245.895C136.251 248.149 132.615 248.611 130.126 247.03C129.296 246.502 128.588 245.787 127.715 245.333C126.842 244.879 125.689 244.744 124.933 245.374C123.225 246.797 120.648 246.413 118.603 245.539C116.577 244.673 114.577 243.195 114.105 241.042C113.638 238.909 114.803 236.759 116.181 235.064C117.558 233.37 119.223 231.835 120.05 229.814C121.265 226.85 124.85 225.374 128.026 225.793C131.202 226.212 133.983 228.145 136.297 230.362C137.786 231.789 140.202 231.229 142.171 230.614C144.14 229.998 146.613 229.543 147.992 231.078C145.153 231.722 142.314 232.367 139.474 233.012C138.211 233.299 136.684 233.512 135.798 232.566Z" fill="#E7EAEE"/>
<path fill-rule="evenodd" clip-rule="evenodd" d="M192.644 229.815C192.507 227.683 192.523 225.53 192.9 223.428C193.186 221.833 193.675 220.284 194.164 218.739C195.217 215.409 196.273 212.07 197.716 208.89C204.791 193.3 221.702 182.741 238.816 183.185C255.93 183.63 272.254 195.028 278.606 210.926C284.959 226.823 281 246.307 268.979 258.496C256.958 270.685 237.56 274.917 221.539 268.882C205.518 262.848 193.741 246.899 192.644 229.815ZM201.622 213.867C200.861 215.89 200.268 218.01 200.27 220.171C200.277 226.796 200.799 233.519 203.049 239.751C207.776 252.851 220.519 262.657 234.387 263.924C248.256 265.191 262.541 257.881 269.67 245.918C276.8 233.956 276.446 217.945 268.838 206.281C261.231 194.617 246.755 187.842 232.919 189.421C219.082 190.999 206.524 200.832 201.622 213.867Z" fill="#00160A"/>
<path fill-rule="evenodd" clip-rule="evenodd" d="M472.443 189.384C486.951 195.482 497.049 210.834 496.904 226.571C496.759 242.307 486.379 257.471 471.761 263.3C457.143 269.13 439.178 265.27 428.243 253.952C417.309 242.634 414.071 224.546 420.401 210.138C421.898 206.731 423.924 203.477 426.801 201.118C433.324 195.77 440.077 190.307 448.145 187.848C456.066 185.434 464.81 186.175 472.443 189.384ZM438.696 197C436.791 198.218 434.991 199.64 433.582 201.409C432.093 203.279 431.085 205.479 430.092 207.655C428.604 210.916 427.108 214.196 426.18 217.658C422.989 229.555 427.305 243.113 436.743 251.028C446.181 258.943 460.239 260.841 471.467 255.773C482.694 250.706 490.56 238.951 491.03 226.642C491.5 214.333 484.588 202.042 473.858 195.991C463.129 189.939 449.075 190.366 438.696 197Z" fill="#00160A"/>
<path fill-rule="evenodd" clip-rule="evenodd" d="M459.618 27.868C434.456 28.403 409.293 28.939 384.131 29.475C383.503 29.488 382.807 29.529 382.367 29.977C382.082 30.267 381.961 30.675 381.854 31.066C376.274 51.416 380.795 72.977 384.586 93.734C386.949 106.676 389.021 119.67 390.8 132.705C392.08 142.091 393.211 151.53 393.132 161.004C393.107 164.016 395.223 166.738 397.861 168.193C400.498 169.648 403.584 170.041 406.593 170.187C412.931 170.495 419.316 169.821 425.45 168.197C426.592 167.894 427.776 167.556 428.938 167.773C430.099 167.991 431.217 168.967 431.147 170.146C431.065 171.51 429.589 172.294 428.302 172.752C420.203 175.634 411.312 176.253 402.892 174.522C398.852 173.692 394.64 172.124 392.324 168.711C391.006 166.77 390.444 164.428 389.931 162.138C384.773 139.102 382.198 115.576 379.683 92.104C377.398 70.772 375.152 49.274 377.069 27.906C377.128 27.246 377.2 26.559 377.55 25.996C378.302 24.789 379.962 24.625 381.383 24.59C407.999 23.937 434.615 23.283 461.231 22.629C462.74 22.592 464.362 22.587 465.608 23.44C466.526 24.07 467.1 25.079 467.642 26.052C477.291 43.374 486.94 60.697 496.589 78.019C498.52 81.485 500.513 85.466 499.312 89.247C498.421 92.051 495.881 94.085 493.124 95.11C490.366 96.135 487.375 96.302 484.437 96.459C479.164 96.74 473.89 97.022 468.616 97.303C455.588 97.998 442.56 98.694 429.532 99.389C428.785 99.429 427.95 99.439 427.397 98.934C426.591 98.197 426.939 96.758 427.8 96.085C428.66 95.412 429.817 95.295 430.906 95.203C450.566 93.545 470.226 91.887 489.886 90.229C491.427 90.099 492.496 88.481 492.565 86.936C492.635 85.392 491.966 83.92 491.307 82.521C482.789 64.421 473.567 46.652 463.667 29.269C462.923 27.962 461.122 27.836 459.618 27.868Z" fill="#00160A"/>
<path fill-rule="evenodd" clip-rule="evenodd" d="M222.324 201.682C231.117 196.815 242.557 197.385 251.023 202.801C259.489 208.217 264.763 218.152 264.874 228.202C264.987 238.438 259.438 248.925 250.168 253.268C246.936 254.782 243.375 255.535 239.809 255.674C226.814 256.181 213.811 247.636 209.647 235.316C205.483 222.996 210.945 207.98 222.324 201.682ZM242.395 251.271C245.811 250.702 249.131 249.483 252.036 247.598C255.014 245.666 257.539 243.041 259.353 239.99C264.074 232.048 263.471 221.381 258.23 213.772C252.99 206.162 243.511 201.821 234.289 202.384C230.851 202.594 227.439 203.44 224.365 204.994C213.76 210.36 208.89 224.521 213.378 235.527C217.865 246.533 230.671 253.226 242.395 251.271Z" fill="#00160A"/>
<path fill-rule="evenodd" clip-rule="evenodd" d="M314.303 183.977C312.772 182.617 310.328 182.686 308.836 181.284C309.256 179.763 310.66 178.764 311.646 177.532C313.975 174.62 313.73 169.971 311.108 167.319C309.782 165.978 307.857 164.951 307.506 163.097C310.248 162.626 313.02 161.742 315.084 159.877C317.149 158.013 318.346 154.99 317.439 152.36C317.161 151.552 316.694 150.781 316.684 149.927C316.673 149.072 317.415 148.127 318.237 148.361C322.636 149.616 327.778 146.69 328.947 142.268C329.449 140.368 332.244 140.555 334 141.439C335.755 142.323 337.99 143.441 339.482 142.162C340.744 141.078 340.976 138.563 342.639 138.594C343.5 138.61 344.11 139.395 344.71 140.012C346.781 142.141 350.227 142.786 352.928 141.551C353.873 141.119 354.747 140.476 355.773 140.311C356.799 140.146 358.063 140.723 358.128 141.76C358.328 144.896 361.754 147.401 364.803 146.638C365.966 146.347 367.941 146.411 367.547 147.543C366.344 151.001 368.917 155.237 372.54 155.764C373.462 155.898 374.442 155.834 375.277 156.249C376.111 156.664 376.664 157.848 376.037 158.537C373.341 161.496 374.479 166.985 378.129 168.628C379.113 169.071 378.881 170.606 378.136 171.387C377.392 172.168 376.318 172.642 375.773 173.573C374.826 175.192 375.954 177.256 377.33 178.53C378.707 179.805 380.437 180.875 381.082 182.637C378.49 181.647 375.28 182.666 373.733 184.969C372.186 187.271 372.457 190.629 374.353 192.654C373.352 194.454 370.677 193.737 368.625 193.918C366.129 194.138 363.944 196.299 363.697 198.792C363.589 199.877 363.803 201.015 363.417 202.035C363.031 203.054 361.621 203.791 360.85 203.02C357.983 200.154 352.498 200.73 350.289 204.13C349.764 204.937 349.248 205.97 348.289 206.057C346.779 206.194 346.297 204.012 345.068 203.125C343.545 202.025 341.382 203.273 340.311 204.816C339.24 206.36 338.571 208.289 336.994 209.312C334 207.113 334.908 200.889 331.228 200.38C329.639 200.16 328.24 201.34 326.735 201.896C325.231 202.452 322.912 201.709 323.193 200.13C323.653 197.546 323.264 194.102 320.726 193.432C318.222 192.771 315.018 195.375 313.29 193.446C315.162 190.521 316.899 186.284 314.303 183.977ZM315.971 167.889C314.822 169.971 315.031 172.497 314.817 174.865C314.602 177.233 313.607 179.907 311.334 180.605C313.904 180.788 316.308 182.49 317.333 184.853C318.359 187.217 317.96 190.135 316.338 192.137C318.443 190.559 321.655 191.019 323.566 192.827C325.477 194.635 326.163 197.488 325.773 200.089C327.94 198.541 330.993 198.345 333.34 199.603C335.687 200.861 337.213 203.514 337.122 206.175C337.769 203.814 339.624 201.75 341.992 201.129C344.36 200.507 347.137 201.518 348.329 203.656C348.438 202.045 349.959 200.904 351.454 200.293C354.658 198.983 358.413 199.097 361.531 200.599C361.15 195.572 366.407 190.958 371.342 191.988C369.798 190.377 369.885 187.755 370.743 185.695C371.824 183.098 374.356 180.836 377.154 181.134C375.53 180.54 374.218 179.149 373.72 177.493C372.884 174.714 374.407 171.614 376.774 169.937C373.786 169.309 372.823 165.593 372.453 162.562C372.26 160.982 372.354 158.913 373.862 158.405C370.75 157.525 367.939 155.61 365.982 153.035C365.077 151.844 364.429 149.963 365.579 149.006C363.192 148.882 360.839 148.166 358.788 146.941C357.226 146.008 355.69 144.299 356.282 142.58C352.105 144.644 346.843 144.316 342.954 141.75C341.779 143.599 339.475 144.495 337.284 144.487C335.093 144.479 332.982 143.699 330.977 142.818C331.214 144.267 330.236 145.63 329.176 146.646C326.481 149.231 322.857 150.826 319.13 151.068C320.788 156.769 316.37 163.422 310.473 164.106C311.897 165.85 313.852 167.127 315.971 167.889Z" fill="#00160A"/>
<path fill-rule="evenodd" clip-rule="evenodd" d="M460.884 249.577C457.15 250.086 453.299 249.724 449.725 248.525C438.394 244.725 430.988 231.767 433.465 220.075C435.941 208.383 447.967 199.541 459.865 200.662C471.763 201.784 481.925 212.717 482.174 224.665C482.423 236.614 472.725 247.961 460.884 249.577ZM469.436 244.528C477.397 239.697 481.767 229.593 479.836 220.483C477.905 211.373 469.813 203.911 460.577 202.724C451.34 201.537 441.624 206.71 437.452 215.036C433.28 223.361 434.953 234.241 441.433 240.929C448.504 248.227 460.749 249.8 469.436 244.528Z" fill="#00160A"/>
<path fill-rule="evenodd" clip-rule="evenodd" d="M344.559 144.873C354.717 144.757 364.702 150.804 369.304 159.86C373.906 168.917 372.905 180.546 366.823 188.683C360.741 196.82 349.87 201.072 339.881 199.222C331.058 197.587 323.227 191.328 319.688 183.081C316.15 174.835 317.01 164.846 321.905 157.325C326.801 149.805 335.587 144.975 344.559 144.873ZM370.477 170.616C370.222 166.57 368.987 162.589 366.906 159.11C360.561 148.503 345.855 143.859 334.569 148.9C323.283 153.94 316.926 167.99 320.591 179.795C324.255 191.6 337.451 199.58 349.607 197.343C361.764 195.106 371.254 182.952 370.477 170.616Z" fill="#00160A"/>
<path fill-rule="evenodd" clip-rule="evenodd" d="M358.769 172.35C356.85 174.591 353.782 175.79 350.853 175.444C349.841 175.324 348.277 175.577 348.549 176.56C352.012 177.777 355.474 178.994 358.937 180.211C360.854 180.885 361.403 183.641 360.262 185.323C359.121 187.005 356.865 187.634 354.847 187.386C352.83 187.137 350.983 186.167 349.188 185.214C347.379 184.252 345.569 183.291 343.759 182.33C346.201 181.364 348.85 182.846 351.164 184.087C353.478 185.327 356.551 186.296 358.536 184.577C358.836 184.317 359.102 183.983 359.156 183.589C359.284 182.647 358.237 182.02 357.356 181.662C354.575 180.53 351.794 179.399 349.012 178.267C347.608 177.695 345.954 178.191 344.75 179.113C343.546 180.035 342.691 181.326 341.818 182.566C339.97 185.19 337.745 187.826 334.663 188.72C331.581 189.613 327.579 187.869 327.262 184.676C327.063 182.669 328.323 180.791 329.815 179.434C331.308 178.077 333.083 177.037 334.45 175.553C334.622 175.366 334.796 175.154 334.817 174.9C334.861 174.371 334.266 174.045 333.768 173.862C331.083 172.871 328.398 171.88 325.713 170.889C324.551 170.46 325.274 168.455 326.503 168.306C327.731 168.157 328.809 169.046 329.791 169.799C332.382 171.788 335.975 173.181 338.869 171.665C340.931 170.585 342.119 168.053 341.63 165.775C340.965 162.672 342.129 159.245 344.548 157.19C346.967 155.135 350.537 154.54 353.492 155.698C351.236 156.759 350.207 159.839 351.372 162.044C352.537 164.248 355.661 165.132 357.809 163.866C358.596 163.402 359.643 162.717 360.277 163.375C360.454 163.557 360.538 163.808 360.606 164.053C361.399 166.894 360.687 170.11 358.769 172.35ZM344.282 163.711C344.274 167.106 346.178 170.601 349.327 171.869C352.476 173.136 356.653 171.567 357.68 168.331C357.908 167.611 357.517 166.453 356.829 166.765C354.952 167.614 352.739 166.632 351.154 165.316C350.121 164.458 349.185 163.408 348.791 162.125C348.397 160.842 348.655 159.294 349.683 158.431C348.069 158.07 346.272 158.745 345.296 160.079C344.541 161.111 344.285 162.433 344.282 163.711ZM330.6 185.103C334.698 189.155 337.138 183.847 338.13 182.708C340.429 180.066 342.867 177.545 345.43 175.158C345.934 174.689 345.952 173.865 345.66 173.241C345.368 172.618 344.832 172.149 344.311 171.699C343.535 171.029 342.286 171.221 341.478 171.851C340.669 172.48 326.503 181.052 330.6 185.103Z" fill="#FFCC33"/>
<path fill-rule="evenodd" clip-rule="evenodd" d="M235.928 213.318C239.664 213.019 243.503 214.382 246.213 216.97C250.413 220.981 251.498 227.879 248.731 232.985C245.964 238.091 239.593 240.949 233.94 239.62C228.555 238.355 224.243 233.423 223.707 227.918C223.171 222.414 226.452 216.743 231.491 214.463C232.889 213.83 234.398 213.441 235.928 213.318ZM242.412 217.523C241.09 216.624 239.636 215.872 238.064 215.581C236.276 215.251 234.403 215.541 232.725 216.243C228.462 218.029 225.556 222.656 225.833 227.27C226.111 231.884 229.575 236.143 234.045 237.32C238.515 238.496 243.646 236.478 246.086 232.551C248.525 228.625 248.05 223.106 244.949 219.678C244.203 218.853 243.331 218.149 242.412 217.523Z" fill="#00160A"/>
<path fill-rule="evenodd" clip-rule="evenodd" d="M238.081 91.569C238.141 96.161 236.967 101.071 239.092 105.142C243.027 112.684 254.077 111.282 262.206 108.775C255.525 101.171 248.844 93.568 242.164 85.964C256.003 71.833 269.843 57.702 283.683 43.571C284.837 42.393 286.169 41.134 287.818 41.102C289.72 41.065 291.207 42.655 292.425 44.116C296.958 49.554 301.491 54.991 306.024 60.429C309.76 64.909 313.316 72.165 308.744 75.787C325.895 74.624 343.047 73.46 360.198 72.296C356.986 53.952 362.888 35.372 368.714 17.684C369.295 15.921 369.997 14.003 371.608 13.081C372.736 12.435 374.102 12.409 375.403 12.4C406.717 12.184 438.031 11.968 469.345 11.752C471.241 11.739 473.242 11.752 474.881 12.707C476.287 13.526 477.235 14.931 478.123 16.296C504.615 57.023 521.154 104.174 525.91 152.526C526.506 158.591 527.159 165.218 531.44 169.555C537.957 176.158 538.658 187.665 532.991 195.01C537.159 198.035 536.13 205.017 532.314 208.474C528.497 211.93 523.074 212.814 517.977 213.549C511.214 214.525 503.857 215.395 497.944 211.97C507.628 209.701 517.324 207.485 527.032 205.323C522.726 176.964 518.42 148.605 514.114 120.246C512.693 110.894 511.266 101.509 508.619 92.428C505.768 82.65 501.537 73.339 497.32 64.067C490.679 49.464 484.037 34.861 477.396 20.258C476.672 18.666 475.888 17 474.461 15.99C472.733 14.768 470.452 14.771 468.336 14.821C438.857 15.523 409.378 16.224 379.898 16.926C378.199 16.967 376.367 17.052 375.032 18.105C373.933 18.97 373.376 20.337 372.895 21.65C361.287 53.369 368.087 88.506 375.009 121.565C376.281 127.638 368.031 130.741 361.85 131.283C291.28 137.469 220.71 143.656 150.141 149.843C149.275 155.438 149.031 161.129 149.414 166.778C154.111 167.191 158.807 167.603 163.504 168.016C162.014 168.603 160.525 169.189 159.035 169.775C161.812 184.37 163.347 199.201 163.618 214.055C163.701 218.576 167.619 222.296 171.935 223.643C176.251 224.991 180.898 224.489 185.39 223.975C180.609 225.977 175.626 228.016 170.448 227.763C165.271 227.509 159.85 224.244 158.894 219.149C155.898 203.172 154.172 186.957 153.739 170.708C151.018 170.774 148.297 170.84 145.576 170.907C144.656 164.107 144.285 157.233 144.469 150.374C144.509 148.898 144.629 147.285 145.636 146.206C146.646 145.124 148.248 144.895 149.719 144.73C157.371 143.871 165.023 143.012 172.675 142.153C170.415 126.454 168.154 110.756 165.893 95.057C165.698 93.701 165.53 92.212 166.266 91.057C167.085 89.774 168.73 89.349 170.221 89.037C190.161 84.871 210.453 82.386 230.809 81.616C235.398 81.442 238.022 86.977 238.081 91.569ZM175.563 140.568C175.613 141.013 175.69 141.506 176.041 141.785C176.382 142.056 176.864 142.028 177.298 141.987C197.32 140.085 217.342 138.184 237.363 136.283C237.916 136.231 238.545 136.134 238.847 135.668C239.084 135.302 239.035 134.829 238.977 134.397C236.931 119.035 234.885 103.672 232.839 88.31C232.783 87.888 232.714 87.438 232.429 87.122C232.045 86.698 231.405 86.654 230.834 86.642C211.05 86.209 191.215 88.224 171.923 92.628C171.398 92.747 170.823 92.902 170.523 93.35C170.241 93.769 170.288 94.318 170.345 94.82C172.084 110.069 173.823 125.319 175.563 140.568ZM361.841 79.153C361.756 78.441 361.607 77.627 360.988 77.264C360.594 77.033 360.106 77.052 359.65 77.078C341.824 78.084 323.999 79.09 306.173 80.097C305.781 80.119 305.357 80.153 305.06 80.411C304.626 80.788 304.651 81.456 304.712 82.026C306.343 97.417 307.975 112.807 309.606 128.197C309.658 128.682 309.728 129.207 310.073 129.551C310.516 129.993 311.229 129.966 311.853 129.909C330.349 128.214 348.844 126.518 367.339 124.822C365.507 109.599 363.674 94.376 361.841 79.153ZM266.09 105.083C266.349 105.32 266.633 105.567 266.982 105.608C267.475 105.666 267.906 105.299 268.265 104.957C280.315 93.505 294.365 84.053 306.415 72.601C306.957 72.085 307.542 71.473 307.517 70.725C307.5 70.224 307.206 69.779 306.922 69.366C302.119 62.377 295.014 53.597 289.626 47.049C289.096 46.406 288.413 45.701 287.587 45.806C287.06 45.873 286.638 46.261 286.256 46.629C272.946 59.452 259.636 72.275 246.326 85.098C246.029 85.383 245.711 85.718 245.717 86.13C245.722 86.542 246.051 86.869 246.356 87.146C252.934 93.125 259.512 99.104 266.09 105.083ZM304.606 111.379C304.503 110.719 304.357 109.987 303.811 109.601C303.327 109.259 302.679 109.301 302.089 109.357C283.664 111.111 265.239 112.865 246.813 114.62C245.85 114.711 244.721 114.913 244.302 115.785C244.071 116.265 244.129 116.827 244.191 117.356C244.813 122.617 245.435 127.879 246.057 133.14C246.144 133.882 246.286 134.716 246.903 135.137C247.397 135.473 248.046 135.435 248.641 135.383C267.697 133.73 286.753 132.078 305.809 130.425C306.284 130.384 306.813 130.315 307.111 129.943C307.419 129.561 307.359 129.011 307.283 128.526C306.391 122.81 305.498 117.095 304.606 111.379ZM300.777 83.902C300.733 83.582 300.584 83.172 300.263 83.197C300.127 83.208 300.014 83.302 299.912 83.391C290.433 91.672 280.955 99.953 271.477 108.234C281.332 107.408 291.178 106.468 301.012 105.416C301.857 105.325 302.832 105.15 303.237 104.403C303.501 103.915 303.433 103.322 303.357 102.772C302.497 96.482 301.637 90.192 300.777 83.902ZM529.51 172.568C530.419 177.807 531.327 183.046 532.235 188.285C532.325 188.805 532.511 189.431 533.026 189.544C533.863 189.728 534.153 188.469 534.038 187.619C533.424 183.086 532.809 178.553 532.195 174.019C532.085 173.208 531.925 172.308 531.269 171.817C530.613 171.327 529.371 171.761 529.51 172.568Z" fill="#00160A"/>
<path fill-rule="evenodd" clip-rule="evenodd" d="M78.785 276.429C61.275 276.706 1.06014 281.168 0.0199411 278.933C-1.31076 276.075 64.353 272.317 78.666 272.09L83.15 272.03C96.164 271.889 78.785 276.429 78.785 276.429ZM212.524 270.959C216.777 270.959 220.105 272.335 217.243 273.34C214.38 274.346 205.117 276.461 189.605 276.818C174.094 277.175 156.115 277.544 129.547 278.067C128.007 278.097 126.733 276.873 126.703 275.332C126.673 273.792 127.897 272.518 129.437 272.488L176.482 271.529C190.764 271.22 199.704 270.959 212.524 270.959ZM425.027 269.325C426.568 269.3 427.837 270.53 427.861 272.07C427.885 273.611 426.656 274.88 425.115 274.904L418.578 274.984L398.575 275.122C394.55 275.163 231.689 276.204 229.481 273.816C227.273 271.428 230.662 270.996 232.202 270.959C232.202 270.959 398.522 269.537 402.871 269.505L419.505 269.395C421.438 269.376 423.189 269.354 425.027 269.325ZM605.839 263.958C605.839 263.958 610.848 263.093 647.418 265.831C648.955 265.946 650.107 267.285 649.992 268.822C649.877 270.358 631.793 269.582 607.07 269.539L600.271 269.55C582.118 269.63 565.254 270.121 537.265 271.273L501.939 272.766C486.864 273.383 477.87 273.684 466.933 273.942C465.393 273.978 464.115 272.759 464.078 271.219C464.042 269.678 465.261 268.4 466.802 268.364L475.584 268.134C486.032 267.832 496.767 267.412 515.801 266.599L535.984 265.742C567.543 264.437 585.092 263.958 605.839 263.958Z" fill="#00160A"/>
</svg>
