<svg width="200" height="200" viewBox="0 0 200 200" fill="none" xmlns="http://www.w3.org/2000/svg">
<g clip-path="url(#clip0_82_134)">
<path d="M200 0H0V200H200V0Z" fill="white"/>
<path fill-rule="evenodd" clip-rule="evenodd" d="M80.1795 152.18C108.114 160.035 121.706 129.889 145.641 132.182C158.743 133.438 184.858 139.801 184.8 93.4481C184.654 63.5222 157.071 56.0286 128.627 71.3756C120.257 74.6489 113.649 73.6345 106.474 70.3822C99.2995 67.13 90.072 52.6108 72.6808 49.6238C20.3452 40.6353 -24.4348 122.761 80.1795 152.18Z" fill="#AFDFF8"/>
<path fill-rule="evenodd" clip-rule="evenodd" d="M146.562 76.8927C147.086 76.6377 148.027 77.1319 147.481 77.9271C146.273 79.6881 150.944 83.2057 149.445 80.106C149.285 79.7745 148.463 77.4825 149.626 78.666C150.789 79.8492 152.411 85.0783 151.362 86.8799C150.442 88.4609 148.005 89.2132 144.679 89.302L144.53 89.3055L144.459 89.3097C142.498 89.4009 141.012 88.1876 140.052 85.8247L140.006 85.7095C139.035 83.2361 139.301 81.2535 140.872 79.9167C140.9 79.8924 140.931 79.8705 140.963 79.8513L141.013 79.8247L146.562 76.8927Z" fill="white"/>
<path fill-rule="evenodd" clip-rule="evenodd" d="M40.6467 30.6033C40.4181 30.279 40.0475 30.0921 39.6517 30.1404C39.2464 30.1897 38.9075 30.4715 38.7843 30.8603L38.7512 30.9643C38.7264 31.0409 38.6968 31.1289 38.6619 31.2278C38.5624 31.51 38.4419 31.8233 38.2995 32.1601C37.8947 33.1179 37.3963 34.074 36.8013 34.963C35.5179 36.882 33.9715 38.2177 32.1587 38.7321C31.8752 38.8123 31.7107 39.1073 31.7912 39.3907C31.832 39.5345 34.4795 40.8577 37.1824 40.5241C39.804 40.2006 42.4835 38.2241 42.5051 38.0897L42.5381 37.8094L42.5475 37.7155C42.7352 35.6793 42.3789 33.379 41.0077 31.1508C40.8936 30.9657 40.7733 30.7833 40.6467 30.6033Z" fill="#E7EAEE"/>
<path fill-rule="evenodd" clip-rule="evenodd" d="M46.1025 31.1953L46.0886 31.303C45.8985 32.6817 45.3665 34.6014 44.4038 36.0497C43.219 37.8326 41.5468 39.1961 39.8662 40.075C37.4417 41.3425 34.803 41.5745 32.2046 39.9278L32.09 39.854C30.7246 38.9609 29.6884 38.531 28.2668 38.8857C26.8449 39.2406 26.1545 40.2761 25.5408 41.2369L25.5127 41.2774C25.4143 41.4089 25.2704 41.4998 25.1082 41.5318L22.4126 41.9588L23.3942 43.1782C23.6897 43.5481 23.8997 43.8145 24.0243 43.9777L25.1032 45.3993C28.3188 49.6166 31.7793 53.6433 38.5276 52.2494L38.7564 52.2004C40.5441 51.8028 42.043 52.8702 43.9236 54.4433L44.3254 54.7817C44.8228 55.2028 46.3268 56.5284 46.9422 57.1668L47.1433 57.3777L47.3289 57.5774C47.3676 57.6196 47.4044 57.6601 47.4393 57.6988L47.6313 57.915L47.7492 57.7761C49.022 56.2436 49.8193 53.9094 50.2321 51.9841C50.3878 51.2566 50.4774 50.5601 50.5148 49.9174L50.5193 49.8337C50.5289 49.6457 50.5332 49.4817 50.534 49.3449V49.243L50.3417 49.2996C48.1161 49.9308 45.6118 49.9934 43.1684 49.7116C42.5782 49.6436 49.0532 44.399 47.7241 37.6073C47.4212 36.0596 47.2289 33.99 46.6998 32.5852C46.5329 32.142 46.3601 31.7369 46.1886 31.3748L46.1025 31.1953Z" fill="white"/>
<path fill-rule="evenodd" clip-rule="evenodd" d="M146.844 77.7307L141.304 80.4238C139.976 81.5537 139.75 83.2342 140.627 85.4651C140.934 86.2481 141.704 88.1126 141.704 87.3803C141.704 87.1515 146.844 83.7913 147.831 84.1201C148.742 84.4241 147.104 81.6838 146.645 80.4238L146.844 77.6619L146.996 77.3867" fill="#E7EAEE"/>
<path fill-rule="evenodd" clip-rule="evenodd" d="M139.453 79.752C139.821 79.752 137.735 80.7333 137.842 82.5429C137.95 84.3522 139.364 87.6874 139.02 87.8189C138.676 87.9504 138.024 86.9781 137.892 86.6341C137.075 84.4941 136.92 83.621 136.949 82.3728C136.987 80.7389 137.847 79.752 139.453 79.752Z" fill="#E7EAEE"/>
<path d="M148.736 84.7982C149.532 84.7982 150.176 83.3418 150.176 81.5451C150.176 79.7485 149.532 78.292 148.736 78.292C147.941 78.292 147.296 79.7485 147.296 81.5451C147.296 83.3418 147.941 84.7982 148.736 84.7982Z" fill="#E7EAEE"/>
<path fill-rule="evenodd" clip-rule="evenodd" d="M48.1511 115.844C48.1511 110.199 48.7783 107.745 55.5127 104.665C69.3154 99.0858 69.3154 98.8706 95.758 88.6474C102.751 85.9575 117.494 92.4007 123.905 89.7005C128.179 87.9005 132.175 86.5637 135.707 84.7783C136.048 87.0111 138.259 90.7914 139.037 91.4413C134.902 92.309 130.903 93.6509 127.038 95.4671C118.684 99.393 123.634 98.3231 110.402 110.802C109.28 111.86 105.159 114.271 99.2005 116.783C99.2005 116.783 87.2005 115.171 82.3877 113.169C77.4895 111.132 70.0677 104.665 70.0677 104.665C70.0677 104.665 61.4117 110.312 56.4354 112.85C54.1061 114.038 48.1511 115.844 48.1511 115.844Z" fill="white"/>
<path fill-rule="evenodd" clip-rule="evenodd" d="M48.1511 112.911C48.1511 111.586 48.0111 110.661 48.1511 109.638C48.6074 106.304 50.3956 104.598 55.5495 102.24C69.3522 96.6613 69.3154 95.937 95.758 85.7138C102.751 83.0239 117.494 89.4671 123.905 86.7669C128.179 84.9669 132.175 83.6301 135.707 81.8447C135.716 81.9087 135.349 84.9599 135.349 84.9599C135.349 84.9599 126.632 89.5631 120.866 90.5391C114.739 91.5762 106.324 86.7669 97.922 89.1322C85.126 92.7343 55.6388 104.056 52.1506 106.893C49.4098 109.123 48.1511 112.911 48.1511 112.911Z" fill="#E7EAEE"/>
<path fill-rule="evenodd" clip-rule="evenodd" d="M40.6467 30.6033C40.4181 30.279 40.0475 30.0921 39.6517 30.1404C39.2464 30.1897 38.9075 30.4715 38.7843 30.8603L38.7512 30.9643C38.7264 31.0409 38.6968 31.1289 38.6619 31.2278C38.5624 31.51 38.4419 31.8233 38.2995 32.1601C37.8947 33.118 37.3963 34.074 36.8013 34.963C35.5179 36.882 33.9715 38.2177 32.1587 38.7321C31.8752 38.8123 31.7107 39.1073 31.7912 39.3907C31.8715 39.6739 36.276 37.6668 37.688 35.5561C38.3235 34.606 38.8525 33.5916 39.2819 32.5756C39.4115 32.2689 39.5243 31.9801 39.6208 31.7137L39.668 31.5822C39.7056 31.475 39.7381 31.3787 39.7659 31.2937C39.7728 31.2331 39.7792 31.2129 39.7853 31.2329C42.8405 33.323 41.6395 38.5105 41.9331 38.5358C42.2131 38.5598 42.4613 38.3628 42.5051 38.0897L42.5381 37.8094L42.5475 37.7155C42.7352 35.6793 42.3789 33.379 41.0077 31.1508C40.8936 30.9657 40.7733 30.7833 40.6467 30.6033Z" fill="#E7EAEE"/>
<path fill-rule="evenodd" clip-rule="evenodd" d="M47.0087 30.5883L47.0759 30.7085L47.158 30.8627C47.2076 30.9576 47.2631 31.0677 47.3236 31.1923C47.5332 31.6235 47.7447 32.1115 47.9473 32.6496C48.518 34.1643 48.9167 35.7989 49.0529 37.5021C49.2377 39.8133 48.9041 41.9944 48.0591 43.9787L47.9868 44.1453C47.3004 45.6955 46.3004 47.1157 45.0023 48.3899L44.8735 48.5144L44.9828 48.5197C46.8524 48.5984 48.7012 48.4309 50.3263 47.9128C50.6748 47.8016 51.0548 47.8589 51.3551 48.0677C51.6548 48.2763 51.8409 48.6117 51.8596 48.9763L51.8639 49.0893L51.8665 49.2389V49.2965C51.8665 49.5051 51.8604 49.7392 51.8455 49.9955C51.8047 50.7035 51.7065 51.4672 51.5356 52.2645C51.0527 54.5171 50.0873 56.6267 48.5095 58.4043C48.2999 58.6403 48.0055 58.7816 47.6921 58.7984L47.6199 58.8C47.2855 58.7939 46.9799 58.6555 46.7628 58.4195L46.6039 58.2347L46.526 58.1461L46.3604 57.9624L46.1791 57.7664C46.1159 57.6995 46.0503 57.6304 45.9823 57.56C45.4031 56.9592 44.7636 56.3637 44.0844 55.8157C42.2023 54.2968 40.3865 53.4392 38.8359 53.5323C36.2996 53.6845 34.1991 53.5661 32.2503 53.0192C29.7311 52.3125 27.7527 50.9256 26.4436 48.7176L26.3702 48.5917C25.6925 47.4099 24.6915 46.0483 23.5107 44.6312C23.1458 44.1931 22.7859 43.7765 22.4428 43.3915L22.2968 43.2283C22.0631 42.9683 21.8716 42.7611 21.7913 42.6768C21.495 42.3645 21.392 41.9165 21.5215 41.5069L21.5405 41.4515C21.6827 41.0688 22.0135 40.7851 22.4166 40.7053L24.5783 40.2781L24.6035 40.2419C25.3769 39.1424 26.4813 38.2112 27.9484 37.836C29.4785 37.4448 31.0887 37.7851 32.7103 38.8139L32.8233 38.8867C35.0135 40.3192 37.1841 40.24 39.2481 39.1611C40.7223 38.3901 42.1276 37.0811 43.1921 35.4792C44.1823 33.9896 44.7705 32.3973 44.8127 31.1405C44.83 30.6155 45.1924 30.1645 45.7017 30.036C46.2116 29.9069 46.7449 30.1328 47.0087 30.5883ZM46.1023 31.1963L46.0884 31.304C45.8985 32.6827 45.3663 34.6024 44.4039 36.0507C43.2188 37.8336 41.5465 39.1971 39.866 40.076C37.4417 41.3435 34.8028 41.5755 32.2044 39.9288L32.0897 39.8549C30.7244 38.9619 29.6881 38.532 28.2665 38.8867C26.8449 39.2416 26.1543 40.2771 25.5406 41.2379L25.5125 41.2784C25.4141 41.4099 25.2702 41.5008 25.108 41.5328L22.4124 41.9597L23.394 43.1792C23.6895 43.5491 23.8995 43.8155 24.0241 43.9787L25.103 45.4003C28.3185 49.6176 31.7791 53.6443 38.5273 52.2504L38.7561 52.2013C40.5439 51.8037 42.0428 52.8712 43.9233 54.4443L44.3252 54.7827C44.8225 55.2037 46.3265 56.5293 46.942 57.1677L47.1431 57.3787L47.3287 57.5784C47.3673 57.6205 47.4041 57.6611 47.4393 57.6997L47.6311 57.916L47.7489 57.7771C49.0217 56.2445 49.8191 53.9104 50.2319 51.9851C50.3879 51.2576 50.4772 50.5611 50.5145 49.9184L50.5191 49.8347C50.5287 49.6467 50.5329 49.4827 50.5337 49.3459V49.244L50.3415 49.3005C48.1159 49.9317 45.6116 49.9944 43.1681 49.7125C42.578 49.6445 49.0529 44.4 47.7239 37.6083C47.4209 36.0605 47.2287 33.9909 46.6996 32.5861C46.5329 32.1429 46.3599 31.7379 46.1884 31.3757L46.1023 31.1963Z" fill="#E7EAEE"/>
<path fill-rule="evenodd" clip-rule="evenodd" d="M29.1999 43.1997C29.7146 43.1997 30.1333 42.781 30.1333 42.2663C30.1333 41.7517 29.7146 41.333 29.1999 41.333C28.6853 41.333 28.2666 41.7517 28.2666 42.2663C28.2666 42.781 28.6853 43.1997 29.1999 43.1997Z" fill="#00160A"/>
<path d="M30.0001 46.9332C30.8101 46.9332 31.4668 46.3959 31.4668 45.7332C31.4668 45.0705 30.8101 44.5332 30.0001 44.5332C29.1901 44.5332 28.5334 45.0705 28.5334 45.7332C28.5334 46.3959 29.1901 46.9332 30.0001 46.9332Z" fill="#FFB61D"/>
<path d="M30.0001 46.9332C30.8101 46.9332 31.4668 46.3959 31.4668 45.7332C31.4668 45.0705 30.8101 44.5332 30.0001 44.5332C29.1901 44.5332 28.5334 45.0705 28.5334 45.7332C28.5334 46.3959 29.1901 46.9332 30.0001 46.9332Z" fill="#FFB61D"/>
<path fill-rule="evenodd" clip-rule="evenodd" d="M47.0088 30.5883L47.076 30.7085L47.1582 30.8627C47.2078 30.9576 47.2632 31.0677 47.3238 31.1923C47.5334 31.6235 47.7448 32.1115 47.9475 32.6496C48.5182 34.1643 48.9168 35.7989 49.0531 37.5021C49.2379 39.8133 48.9043 41.9944 48.0592 43.9787L47.987 44.1453C47.3006 45.6955 46.3006 47.1157 45.0022 48.3899L44.8736 48.5144L44.983 48.5197C46.8526 48.5984 48.7011 48.4309 50.3264 47.9128C50.675 47.8016 51.055 47.8589 51.3552 48.0677C51.655 48.2763 51.8411 48.6117 51.8598 48.9763L51.864 49.0893L51.8667 49.2389V49.2965C51.8667 49.5051 51.8606 49.7392 51.8456 49.9955C51.8046 50.7035 51.7064 51.4672 51.5358 52.2645C51.0528 54.5171 50.0875 56.6267 48.5096 58.4043C48.3 58.6403 48.0054 58.7816 47.6923 58.7984L47.62 58.8C47.2854 58.7939 46.98 58.6555 46.763 58.4195L46.604 58.2347L46.5262 58.1461L46.3606 57.9624L46.179 57.7664C46.116 57.6995 46.0504 57.6304 45.9824 57.56C45.403 56.9592 44.7638 56.3637 44.0846 55.8157C42.2022 54.2968 40.3867 53.4392 38.836 53.5323C36.2995 53.6845 34.1992 53.5661 32.2504 53.0192C29.731 52.3125 27.7528 50.9256 26.4437 48.7176L26.3704 48.5917C25.6926 47.4099 24.6915 46.0483 23.5108 44.6312C23.1459 44.1931 22.7859 43.7765 22.4429 43.3915L22.2969 43.2283C22.0632 42.9683 21.8717 42.7611 21.7915 42.6768C21.4952 42.3645 21.3922 41.9165 21.5216 41.5069L21.5406 41.4515C21.6828 41.0688 22.0136 40.7851 22.4167 40.7053L24.5784 40.2781L24.6036 40.2419C25.377 39.1424 26.4814 38.2112 27.9483 37.836C29.3923 37.4667 30.9078 37.7491 32.4366 38.6467C34.1299 38.0789 35.584 36.7837 36.8014 34.9637C37.3963 34.0744 37.8947 33.1184 38.2995 32.1608C38.4419 31.8237 38.5624 31.5107 38.6619 31.2283C38.6968 31.1296 38.7264 31.0416 38.7515 30.9648L38.7843 30.8608C38.9075 30.472 39.2464 30.1901 39.6518 30.1411C40.0475 30.0925 40.4182 30.2795 40.6467 30.604C40.7736 30.7837 40.8939 30.9664 41.0078 31.1515C42.072 32.8811 42.5251 34.6541 42.5867 36.3133C42.7984 36.0459 43.0008 35.7672 43.1923 35.4792C44.1822 33.9896 44.7707 32.3973 44.8126 31.1405C44.8302 30.6155 45.1926 30.1645 45.7019 30.036C46.2118 29.9069 46.7451 30.1328 47.0088 30.5883ZM39.2483 39.1611C37.2435 40.2091 35.1379 40.3139 33.0118 39.0061C34.4432 38.3443 36.74 36.9739 37.688 35.5568C38.3235 34.6067 38.8526 33.592 39.2819 32.576C39.4115 32.2696 39.5243 31.9808 39.6211 31.7141L39.668 31.5829C39.7056 31.4755 39.7382 31.3792 39.7659 31.2944C39.7728 31.2336 39.7792 31.2133 39.7854 31.2333C41.8163 32.6229 41.9664 35.3808 41.9251 37.0813C41.1088 37.9525 40.1928 38.6672 39.2483 39.1611ZM39.8662 40.076C40.6798 39.6504 41.4912 39.1115 42.2467 38.4661C42.3048 38.4325 42.356 38.3877 42.3976 38.3349C43.1443 37.6765 43.831 36.9125 44.4038 36.0507C45.3664 34.6024 45.8984 32.6827 46.0886 31.304L46.1024 31.1963L46.1886 31.3757C46.36 31.7379 46.5328 32.1429 46.6998 32.5861C47.068 33.5637 47.2731 34.8632 47.4659 36.0848V36.0851C47.5499 36.6187 47.6318 37.1376 47.724 37.6083C48.7427 42.8139 45.1768 47.1104 43.7214 48.864C43.2779 49.3984 43.0304 49.6965 43.1683 49.7125C45.6118 49.9944 48.116 49.9317 50.3416 49.3005L50.5339 49.244V49.3459C50.5331 49.4827 50.5288 49.6467 50.5192 49.8347L50.5147 49.9184C50.4774 50.5611 50.3878 51.2576 50.232 51.9851C49.8192 53.9104 49.0219 56.2445 47.7491 57.7771L47.6312 57.916L47.4392 57.6997C47.4043 57.6611 47.3675 57.6205 47.3288 57.5784L47.1432 57.3787L46.9422 57.1677C46.3267 56.5293 44.8227 55.2037 44.3254 54.7827L43.9235 54.4443C42.043 52.8712 40.544 51.8037 38.7563 52.2013L38.5275 52.2504C31.7792 53.6443 28.3187 49.6176 25.1031 45.4003L24.0242 43.9787C23.8996 43.8155 23.6896 43.5491 23.3942 43.1792L22.4125 41.9597L25.1081 41.5328C25.2703 41.5008 25.4142 41.4099 25.5126 41.2784L25.5407 41.2379C26.1544 40.2771 26.8448 39.2416 28.2667 38.8867C29.6883 38.532 30.7246 38.9619 32.0899 39.8549L32.2046 39.9288C34.803 41.5755 37.4416 41.3435 39.8662 40.076ZM146.562 76.8923C147.086 76.6373 148.027 77.1315 147.481 77.9269C146.656 79.1309 147.573 81.9267 148.132 83.6293V83.6296V83.6299C148.39 84.4173 148.572 84.9709 148.469 85.0251C148.142 85.1955 147.74 85.0693 147.569 84.7429C146.646 82.976 146.115 81.5728 145.983 80.5061C145.917 79.9755 145.903 79.4621 145.94 78.9667L145.945 78.9096L141.676 80.9848L141.621 81.0344C140.658 81.9384 140.234 82.988 140.939 84.8472L140.981 84.9552C141.746 86.9045 143.042 88.3027 144.391 88.2445L144.496 88.2392C147.493 88.1789 149.284 87.2773 149.923 86.1792C150.726 84.7987 150.945 83.2056 149.445 80.1056C149.285 79.7744 148.462 77.4824 149.626 78.6656C150.789 79.8488 152.411 85.0779 151.362 86.8795C150.486 88.3835 148.239 89.1376 145.16 89.284C145.177 89.3624 145.181 89.4456 145.169 89.5299C144.877 91.5096 143.974 92.7549 142.463 93.1152C141.307 93.3907 140.065 93.0259 138.928 92.1464C134.931 93.0045 131.063 94.3125 127.322 96.0707L126.768 96.3331C124.859 97.2448 123.764 97.856 122.965 98.4501C122.496 98.7984 122.109 99.1554 121.693 99.6147L121.626 99.6912C121.424 99.9253 120.984 100.463 120.483 101.074L120.482 101.075L120.481 101.076L120.481 101.077L120.481 101.077L120.479 101.079L120.478 101.08C119.812 101.894 119.04 102.837 118.578 103.371L118.356 103.628C116.478 105.779 114.112 108.22 110.859 111.287L110.768 111.371C109.548 112.461 106.308 114.303 102.267 116.161C113.419 115.765 121.461 111.508 126.469 103.384C126.689 103.026 127.181 102.959 127.489 103.244C136.101 111.22 146.079 114.911 157.462 114.334C168.875 113.756 177.25 110.79 182.614 105.464C182.875 105.205 183.297 105.206 183.556 105.468C183.816 105.729 183.814 106.151 183.553 106.41C177.927 111.997 165.981 116.19 154.267 116.783C142.875 117.359 136.077 112.666 127.386 104.95L127.173 104.761L127.097 104.877C121.593 113.219 109.633 119.304 97.6987 119.39L97.3246 119.391C85.1174 119.391 78.0771 113.481 69.8414 105.402L69.7771 105.338L69.7478 105.363L69.5326 105.545L69.2198 105.807L69.0283 105.969C61.3112 112.463 55.5531 117.309 46.8912 118.547L46.615 118.585C36.8488 120.561 22.037 115.298 19.7609 112.718C17.6753 110.354 20.1079 111.823 20.7757 112.227C20.8367 112.264 20.883 112.292 20.9098 112.307C27.3736 116.008 34.8264 117.417 43.7683 116.198C45.0022 116.029 46.2286 115.806 47.447 115.529L47.4328 115.398C47.0424 111.69 47.04 110.069 47.6027 108.209C48.3678 105.678 50.2256 103.756 53.5675 102.227L54.4878 101.82C58.6158 100.001 61.8942 98.6352 65.2947 97.308L65.5438 97.2109C65.9251 97.0627 66.3115 96.9133 66.7059 96.7621L67.0923 96.6147C67.232 96.5653 69.0536 95.8432 71.8227 94.7453C78.2099 92.2131 89.6384 87.6824 97.0939 84.7997C98.7067 84.1795 100.66 83.9733 103.055 84.0971L103.261 84.1085C105.056 84.2141 106.82 84.4576 109.713 84.9581L112.256 85.4035C115.094 85.8947 116.469 86.0885 118.075 86.2029C118.58 86.2389 119.06 86.2835 119.516 86.3259C121.204 86.4827 122.564 86.6091 123.646 86.1531C124.607 85.7485 125.548 85.3579 126.471 84.9752L126.471 84.9749L126.478 84.972H126.479C129.505 83.7168 132.327 82.5461 134.946 81.244C135.126 80.0792 135.585 79.2192 136.304 78.6528C137.413 77.7792 138.984 77.7645 140.346 78.2941C140.689 78.4277 140.859 78.8141 140.726 79.1571C140.682 79.2683 140.405 79.2171 140.013 79.1448C139.192 78.9933 137.868 78.7491 137.129 79.7003C136.307 80.7587 136.034 82.3797 136.762 85.5717C137.289 87.8851 140.709 91.8184 142.153 91.8184C143.764 91.8184 144.14 90.2549 144.354 89.3683L144.367 89.3128C142.452 89.3624 140.997 88.1504 140.052 85.8245L140.006 85.7093C139.035 83.2357 139.301 81.2531 140.872 79.9163C140.901 79.892 140.931 79.8701 140.963 79.8512L141.013 79.8245L146.562 76.8923ZM137.698 90.9411C137.63 90.8595 137.564 90.7757 137.498 90.6901C137.472 90.6635 137.449 90.6365 137.428 90.6115C137.367 90.5376 137.305 90.4627 137.241 90.3864C136.725 89.7659 136.126 89.0466 135.657 88.0099L135.589 87.8587C134.837 86.1741 134.748 84.2819 134.794 82.7216L134.801 82.5405L134.761 82.5605C131.654 84.0981 128.274 85.6408 124.622 87.1883L124.164 87.3819C122.6 88.0405 120.647 88.5059 118.172 88.3459L117.981 88.3328C116.29 88.2122 114.868 88.0101 111.885 87.4925L109.659 87.1021C103.382 86.0155 100.242 85.8459 97.6536 86.8136C97.6536 86.8136 59.0582 101.332 54.115 103.443C51.1088 104.818 50.0888 106.112 48.8456 108.209C48.2024 109.293 48.2675 112.285 48.3128 114.363V114.363C48.3203 114.711 48.3272 115.034 48.3304 115.318C55.628 113.493 62.643 109.698 69.3798 103.927C69.6454 103.699 70.0416 103.716 70.2875 103.964C70.8326 104.515 71.3867 105.048 71.9499 105.561L99.743 93.9499C99.8192 93.9179 99.8979 93.9013 99.9758 93.8984C100.185 93.7997 100.411 93.7181 100.653 93.6536C103.077 93.0093 105.012 94.0576 106.349 96.6379L108.772 94.8707C109.129 94.6101 109.637 94.7632 109.79 95.1778C112.001 101.153 111.357 105.246 107.716 107.222C104.045 109.214 100.853 107.571 98.3635 102.592C98.2374 102.34 98.287 102.048 98.4616 101.851C97.8683 99.4405 97.7582 97.52 98.1619 96.1293L73.8115 107.165C77.4526 110.121 81.4507 112.35 85.8088 113.854C85.9086 113.758 86.0166 113.676 86.1227 113.618C89.7936 111.607 98.8379 109.259 101.072 108.678C101.265 108.628 101.408 108.591 101.491 108.569C102.539 108.288 101.465 109.267 101.149 109.414L101.109 109.431L87.908 114.514C91.835 115.633 96.0398 116.191 100.525 116.191C100.78 116.191 101.033 116.19 101.285 116.186L101.58 115.994H101.581L101.581 115.993L101.581 115.993C104.404 114.158 109.125 111.09 109.944 110.317L110.326 109.956C113.044 107.318 115.067 104.789 116.833 102.58C118.77 100.157 120.398 98.1211 122.294 96.7552C123.769 95.6933 124.304 95.4507 125.56 94.8805C125.896 94.728 126.283 94.552 126.754 94.3307C130.086 92.7648 133.87 91.8584 137.422 91.0072L137.698 90.9411ZM100.996 94.9421C102.916 94.4317 104.354 95.3336 105.451 97.8517L102.618 100.097L102.615 100.098L99.6886 101.253L99.6155 100.932C98.8139 97.2989 99.336 95.3835 100.996 94.9421ZM105.451 97.8517L102.621 100.097C102.677 100.074 102.736 100.06 102.794 100.054C102.848 100.048 102.901 100.049 102.954 100.056C103.078 100.073 103.196 100.124 103.293 100.205C103.357 100.259 103.411 100.324 103.452 100.401C104.12 101.604 104.637 101.89 105.161 101.596C105.716 101.285 105.891 100.114 105.485 98.0235L105.451 97.8517ZM68.7302 125.225C69.04 125.026 71.1771 123.983 69.2739 125.943C67.3707 127.903 52.5483 136.218 44.5472 136.678C36.8355 137.122 29.9886 133.901 24.0313 129.686L23.8339 129.545L23.7945 129.596C23.5308 129.93 23.2599 130.234 22.9814 130.506L22.8616 130.621C22.357 131.095 21.4837 131.631 20.2219 132.254C19.8918 132.417 18.7254 132.567 19.329 131.951C19.9326 131.336 21.2536 130.45 22.023 129.942C22.5258 129.61 22.6846 129.221 22.8421 128.836C22.9257 128.632 23.0088 128.428 23.1428 128.234C23.3578 127.923 23.7883 127.853 24.091 128.08C29.9638 132.482 36.824 134.828 44.5472 134.383C52.3022 133.937 60.3115 130.642 68.7302 125.225ZM114.343 129.476C114.614 129.226 114.614 127.445 114.343 127.694C111.348 130.458 105.077 132.89 97.3382 133.335C89.5899 133.781 83.4982 132.563 79.051 129.703C78.7414 129.504 77.2083 128.977 78.1296 129.903C79.051 130.829 89.4067 135.66 97.4147 135.199L97.6544 135.185C105.545 134.703 111.108 132.461 114.343 129.476ZM108.873 96.5955L108.833 96.4757L106.826 97.9403L106.863 98.1472C107.267 100.508 106.991 102.051 105.872 102.725L105.813 102.759C104.646 103.413 103.548 102.951 102.63 101.607L102.589 101.547L99.8904 102.637L99.9528 102.75C102.016 106.473 104.302 107.509 106.993 106.096L107.08 106.05C109.783 104.583 110.449 101.591 108.967 96.8856L108.873 96.5955ZM30.1334 42.2667C30.1334 42.7813 29.7147 43.2 29.2 43.2C28.6854 43.2 28.2667 42.7813 28.2667 42.2667C28.2667 41.752 28.6854 41.3333 29.2 41.3333C29.7147 41.3333 30.1334 41.752 30.1334 42.2667Z" fill="#00160A"/>
</g>
<defs>
<clipPath id="clip0_82_134">
<rect width="200" height="200" fill="white"/>
</clipPath>
</defs>
</svg>
